<?xml version="1.0" encoding="utf-8" standalone="no"?>
<!DOCTYPE svg PUBLIC "-//W3C//DTD SVG 1.1//EN"
  "http://www.w3.org/Graphics/SVG/1.1/DTD/svg11.dtd">
<svg xmlns:xlink="http://www.w3.org/1999/xlink" width="1792.73pt" height="1144.850519pt" viewBox="0 0 1792.73 1144.850519" xmlns="http://www.w3.org/2000/svg" version="1.1">
 <metadata>
  <rdf:RDF xmlns:dc="http://purl.org/dc/elements/1.1/" xmlns:cc="http://creativecommons.org/ns#" xmlns:rdf="http://www.w3.org/1999/02/22-rdf-syntax-ns#">
   <cc:Work>
    <dc:type rdf:resource="http://purl.org/dc/dcmitype/StillImage"/>
    <dc:date>2025-06-05T18:45:15.139448</dc:date>
    <dc:format>image/svg+xml</dc:format>
    <dc:creator>
     <cc:Agent>
      <dc:title>Matplotlib v3.7.1, https://matplotlib.org/</dc:title>
     </cc:Agent>
    </dc:creator>
   </cc:Work>
  </rdf:RDF>
 </metadata>
 <defs>
  <style type="text/css">*{stroke-linejoin: round; stroke-linecap: butt}</style>
 </defs>
 <g id="figure_1">
  <g id="patch_1">
   <path d="M 0 1144.850519 
L 1792.73 1144.850519 
L 1792.73 0 
L 0 0 
z
" style="fill: #ffffff"/>
  </g>
  <g id="axes_1">
   <g id="patch_2">
    <path d="M 70.2 877.835655 
L 1785.53 877.835655 
L 1785.53 7.2 
L 70.2 7.2 
z
" style="fill: #ffffff"/>
   </g>
   <g id="patch_3">
    <path d="M 148.169545 719.538263 
L 188.849308 719.538263 
L 188.849308 553.326002 
L 148.169545 553.326002 
z
" clip-path="url(#p114efcf137)" style="fill: #1f77b4"/>
   </g>
   <g id="patch_4">
    <path d="M 374.168228 719.538263 
L 414.847991 719.538263 
L 414.847991 490.007045 
L 374.168228 490.007045 
z
" clip-path="url(#p114efcf137)" style="fill: #1f77b4"/>
   </g>
   <g id="patch_5">
    <path d="M 600.16691 719.538263 
L 640.846673 719.538263 
L 640.846673 664.134176 
L 600.16691 664.134176 
z
" clip-path="url(#p114efcf137)" style="fill: #1f77b4"/>
   </g>
   <g id="patch_6">
    <path d="M 826.165593 719.538263 
L 866.845356 719.538263 
L 866.845356 751.197742 
L 826.165593 751.197742 
z
" clip-path="url(#p114efcf137)" style="fill: #1f77b4"/>
   </g>
   <g id="patch_7">
    <path d="M 1052.164275 719.538263 
L 1092.844038 719.538263 
L 1092.844038 331.709653 
L 1052.164275 331.709653 
z
" clip-path="url(#p114efcf137)" style="fill: #1f77b4"/>
   </g>
   <g id="patch_8">
    <path d="M 1278.162958 719.538263 
L 1318.842721 719.538263 
L 1318.842721 687.878785 
L 1278.162958 687.878785 
z
" clip-path="url(#p114efcf137)" style="fill: #1f77b4"/>
   </g>
   <g id="patch_9">
    <path d="M 1504.16164 719.538263 
L 1544.841403 719.538263 
L 1544.841403 719.538263 
L 1504.16164 719.538263 
z
" clip-path="url(#p114efcf137)" style="fill: #1f77b4"/>
   </g>
   <g id="patch_10">
    <path d="M 188.849308 719.538263 
L 229.529071 719.538263 
L 229.529071 395.02861 
L 188.849308 395.02861 
z
" clip-path="url(#p114efcf137)" style="fill: #ff7f0e"/>
   </g>
   <g id="patch_11">
    <path d="M 414.847991 719.538263 
L 455.527754 719.538263 
L 455.527754 679.963915 
L 414.847991 679.963915 
z
" clip-path="url(#p114efcf137)" style="fill: #ff7f0e"/>
   </g>
   <g id="patch_12">
    <path d="M 640.846673 719.538263 
L 681.526436 719.538263 
L 681.526436 664.134176 
L 640.846673 664.134176 
z
" clip-path="url(#p114efcf137)" style="fill: #ff7f0e"/>
   </g>
   <g id="patch_13">
    <path d="M 866.845356 719.538263 
L 907.525119 719.538263 
L 907.525119 529.581393 
L 866.845356 529.581393 
z
" clip-path="url(#p114efcf137)" style="fill: #ff7f0e"/>
   </g>
   <g id="patch_14">
    <path d="M 1092.844038 719.538263 
L 1133.523801 719.538263 
L 1133.523801 165.497392 
L 1092.844038 165.497392 
z
" clip-path="url(#p114efcf137)" style="fill: #ff7f0e"/>
   </g>
   <g id="patch_15">
    <path d="M 1318.842721 719.538263 
L 1359.522484 719.538263 
L 1359.522484 703.708524 
L 1318.842721 703.708524 
z
" clip-path="url(#p114efcf137)" style="fill: #ff7f0e"/>
   </g>
   <g id="patch_16">
    <path d="M 1544.841403 719.538263 
L 1585.521166 719.538263 
L 1585.521166 664.134176 
L 1544.841403 664.134176 
z
" clip-path="url(#p114efcf137)" style="fill: #ff7f0e"/>
   </g>
   <g id="patch_17">
    <path d="M 229.529071 719.538263 
L 270.208834 719.538263 
L 270.208834 402.94348 
L 229.529071 402.94348 
z
" clip-path="url(#p114efcf137)" style="fill: #2ca02c"/>
   </g>
   <g id="patch_18">
    <path d="M 455.527754 719.538263 
L 496.207516 719.538263 
L 496.207516 537.496263 
L 455.527754 537.496263 
z
" clip-path="url(#p114efcf137)" style="fill: #2ca02c"/>
   </g>
   <g id="patch_19">
    <path d="M 681.526436 719.538263 
L 722.206199 719.538263 
L 722.206199 529.581393 
L 681.526436 529.581393 
z
" clip-path="url(#p114efcf137)" style="fill: #2ca02c"/>
   </g>
   <g id="patch_20">
    <path d="M 907.525119 719.538263 
L 948.204881 719.538263 
L 948.204881 553.326002 
L 907.525119 553.326002 
z
" clip-path="url(#p114efcf137)" style="fill: #2ca02c"/>
   </g>
   <g id="patch_21">
    <path d="M 1133.523801 719.538263 
L 1174.203564 719.538263 
L 1174.203564 442.517828 
L 1133.523801 442.517828 
z
" clip-path="url(#p114efcf137)" style="fill: #2ca02c"/>
   </g>
   <g id="patch_22">
    <path d="M 1359.522484 719.538263 
L 1400.202246 719.538263 
L 1400.202246 656.219307 
L 1359.522484 656.219307 
z
" clip-path="url(#p114efcf137)" style="fill: #2ca02c"/>
   </g>
   <g id="patch_23">
    <path d="M 1585.521166 719.538263 
L 1626.200929 719.538263 
L 1626.200929 434.602958 
L 1585.521166 434.602958 
z
" clip-path="url(#p114efcf137)" style="fill: #2ca02c"/>
   </g>
   <g id="patch_24">
    <path d="M 270.208834 719.538263 
L 310.888597 719.538263 
L 310.888597 490.007045 
L 270.208834 490.007045 
z
" clip-path="url(#p114efcf137)" style="fill: #d62728"/>
   </g>
   <g id="patch_25">
    <path d="M 496.207516 719.538263 
L 536.887279 719.538263 
L 536.887279 592.90035 
L 496.207516 592.90035 
z
" clip-path="url(#p114efcf137)" style="fill: #d62728"/>
   </g>
   <g id="patch_26">
    <path d="M 722.206199 719.538263 
L 762.885962 719.538263 
L 762.885962 640.389567 
L 722.206199 640.389567 
z
" clip-path="url(#p114efcf137)" style="fill: #d62728"/>
   </g>
   <g id="patch_27">
    <path d="M 948.204881 719.538263 
L 988.884644 719.538263 
L 988.884644 529.581393 
L 948.204881 529.581393 
z
" clip-path="url(#p114efcf137)" style="fill: #d62728"/>
   </g>
   <g id="patch_28">
    <path d="M 1174.203564 719.538263 
L 1214.883327 719.538263 
L 1214.883327 292.135305 
L 1174.203564 292.135305 
z
" clip-path="url(#p114efcf137)" style="fill: #d62728"/>
   </g>
   <g id="patch_29">
    <path d="M 1400.202246 719.538263 
L 1440.882009 719.538263 
L 1440.882009 442.517828 
L 1400.202246 442.517828 
z
" clip-path="url(#p114efcf137)" style="fill: #d62728"/>
   </g>
   <g id="patch_30">
    <path d="M 1626.200929 719.538263 
L 1666.880692 719.538263 
L 1666.880692 672.049046 
L 1626.200929 672.049046 
z
" clip-path="url(#p114efcf137)" style="fill: #d62728"/>
   </g>
   <g id="patch_31">
    <path d="M 310.888597 719.538263 
L 351.56836 719.538263 
L 351.56836 276.305566 
L 310.888597 276.305566 
z
" clip-path="url(#p114efcf137)" style="fill: #9467bd"/>
   </g>
   <g id="patch_32">
    <path d="M 536.887279 719.538263 
L 577.567042 719.538263 
L 577.567042 767.027481 
L 536.887279 767.027481 
z
" clip-path="url(#p114efcf137)" style="fill: #9467bd"/>
   </g>
   <g id="patch_33">
    <path d="M 762.885962 719.538263 
L 803.565725 719.538263 
L 803.565725 711.623394 
L 762.885962 711.623394 
z
" clip-path="url(#p114efcf137)" style="fill: #9467bd"/>
   </g>
   <g id="patch_34">
    <path d="M 988.884644 719.538263 
L 1029.564407 719.538263 
L 1029.564407 363.369132 
L 988.884644 363.369132 
z
" clip-path="url(#p114efcf137)" style="fill: #9467bd"/>
   </g>
   <g id="patch_35">
    <path d="M 1214.883327 719.538263 
L 1255.56309 719.538263 
L 1255.56309 300.050175 
L 1214.883327 300.050175 
z
" clip-path="url(#p114efcf137)" style="fill: #9467bd"/>
   </g>
   <g id="patch_36">
    <path d="M 1440.882009 719.538263 
L 1481.561772 719.538263 
L 1481.561772 664.134176 
L 1440.882009 664.134176 
z
" clip-path="url(#p114efcf137)" style="fill: #9467bd"/>
   </g>
   <g id="patch_37">
    <path d="M 1666.880692 719.538263 
L 1707.560455 719.538263 
L 1707.560455 474.177306 
L 1666.880692 474.177306 
z
" clip-path="url(#p114efcf137)" style="fill: #9467bd"/>
   </g>
   <g id="matplotlib.axis_1">
    <g id="xtick_1">
     <g id="line2d_1">
      <defs>
       <path id="m3c5bb4487f" d="M 0 0 
L 0 3.5 
" style="stroke: #000000; stroke-width: 0.8"/>
      </defs>
      <g>
       <use xlink:href="#m3c5bb4487f" x="249.868953" y="877.835655" style="stroke: #000000; stroke-width: 0.8"/>
      </g>
     </g>
     <g id="text_1">
      <!-- 最终打分 -->
      <g transform="translate(175.195585 984.904527) rotate(-50) scale(0.28 -0.28)">
       <defs>
        <path id="SimHei-6700" d="M 475 275 
Q 675 300 1100 350 
L 1100 2450 
Q 775 2450 425 2425 
L 425 2850 
Q 775 2825 1125 2825 
L 5025 2825 
Q 5475 2825 5900 2850 
L 5900 2425 
Q 5475 2450 5025 2450 
L 3050 2450 
L 3050 675 
L 3400 775 
Q 3400 550 3425 400 
Q 3225 350 3050 325 
Q 3050 -125 3075 -550 
L 2600 -550 
Q 2625 -125 2625 250 
Q 2350 200 1812 87 
Q 1275 -25 650 -175 
Q 575 100 475 275 
z
M 5100 4925 
Q 5075 4600 5075 4325 
L 5075 3875 
Q 5075 3600 5100 3250 
L 1275 3250 
Q 1300 3600 1300 3875 
L 1300 4325 
Q 1300 4600 1275 4925 
L 5100 4925 
z
M 3300 2050 
Q 3750 2025 4125 2025 
L 5375 2025 
Q 5100 975 4725 400 
Q 5350 0 5925 -100 
Q 5700 -275 5650 -500 
Q 5025 -300 4475 150 
Q 4150 -200 3600 -575 
Q 3500 -425 3250 -275 
Q 3775 -100 4150 350 
Q 3725 775 3500 1675 
L 3300 1675 
L 3300 2050 
z
M 4600 4250 
L 4600 4600 
L 1750 4600 
L 1750 4250 
L 4600 4250 
z
M 4600 3575 
L 4600 3900 
L 1750 3900 
L 1750 3575 
L 4600 3575 
z
M 3900 1675 
Q 4000 1075 4400 625 
Q 4700 1050 4850 1675 
L 3900 1675 
z
M 2625 1250 
L 2625 1675 
L 1525 1675 
L 1525 1250 
L 2625 1250 
z
M 2625 575 
L 2625 925 
L 1525 925 
L 1525 425 
L 2625 575 
z
M 2625 2025 
L 2625 2450 
L 1525 2450 
L 1525 2025 
L 2625 2025 
z
" transform="scale(0.015625)"/>
        <path id="SimHei-7ec8" d="M 4075 4950 
Q 3950 4800 3750 4400 
L 5600 4400 
Q 5375 3825 5162 3450 
Q 4950 3075 4575 2625 
Q 4900 2350 5350 2100 
Q 5800 1850 6075 1775 
Q 5850 1575 5725 1325 
Q 4950 1700 4250 2325 
Q 4000 2100 3587 1837 
Q 3175 1575 2675 1300 
Q 2575 1550 2325 1725 
Q 2850 1900 3300 2162 
Q 3750 2425 3950 2625 
Q 3575 3100 3350 3625 
Q 3050 3100 2800 2750 
Q 2550 2950 2375 3025 
Q 2650 3325 2862 3662 
Q 3075 4000 3250 4375 
Q 3425 4750 3550 5200 
Q 3850 5025 4075 4950 
z
M 2225 1200 
Q 2075 1175 1587 1125 
Q 1100 1075 550 950 
Q 475 1175 350 1475 
Q 600 1550 862 1900 
Q 1125 2250 1375 2700 
Q 1225 2700 950 2650 
Q 675 2600 475 2500 
Q 375 2800 225 3025 
Q 550 3275 825 3875 
Q 1100 4475 1275 5075 
Q 1575 4900 1800 4825 
Q 1650 4600 1400 4125 
Q 1150 3650 825 3025 
Q 1000 3025 1600 3075 
Q 1900 3550 2075 3975 
Q 2400 3750 2575 3675 
Q 2325 3350 1962 2800 
Q 1600 2250 1075 1525 
Q 1300 1525 2200 1650 
Q 2200 1400 2225 1200 
z
M 3250 725 
Q 4900 150 5425 -125 
Q 5325 -325 5200 -625 
Q 4525 -225 4050 -62 
Q 3575 100 3025 250 
Q 3175 500 3250 725 
z
M 2350 100 
Q 1900 25 1387 -87 
Q 875 -200 475 -375 
Q 425 -125 275 175 
Q 1025 250 2375 575 
Q 2350 350 2350 100 
z
M 3725 1750 
Q 4175 1575 4550 1437 
Q 4925 1300 5275 1150 
Q 5150 975 5050 700 
Q 4750 850 4400 987 
Q 4050 1125 3525 1275 
Q 3675 1500 3725 1750 
z
M 4275 2950 
Q 4675 3375 4925 4000 
L 3650 4000 
Q 3925 3325 4275 2950 
z
" transform="scale(0.015625)"/>
        <path id="SimHei-6253" d="M 1900 1875 
L 1900 175 
Q 1900 -225 1712 -350 
Q 1525 -475 850 -575 
Q 800 -225 675 25 
Q 1250 -25 1325 50 
Q 1400 125 1400 325 
L 1400 1700 
Q 750 1475 475 1325 
Q 400 1575 275 1850 
Q 650 1925 1400 2150 
L 1400 3425 
Q 825 3425 400 3375 
L 400 3875 
Q 800 3850 1400 3850 
Q 1400 4625 1375 5225 
L 1925 5225 
Q 1900 4650 1900 3850 
Q 2475 3850 2875 3875 
L 2875 3400 
Q 2475 3425 1900 3425 
L 1900 2325 
Q 2300 2425 2775 2650 
Q 2775 2400 2800 2175 
L 1900 1875 
z
M 5175 4550 
Q 5725 4550 6100 4600 
L 6100 4075 
Q 5625 4100 4850 4100 
L 4850 75 
Q 4825 -350 4512 -450 
Q 4200 -550 3725 -625 
Q 3675 -300 3475 -50 
Q 4075 -50 4200 25 
Q 4325 100 4325 375 
L 4325 4100 
L 3625 4100 
Q 3075 4100 2875 4075 
L 2875 4600 
Q 3400 4550 3350 4550 
L 5175 4550 
z
" transform="scale(0.015625)"/>
        <path id="SimHei-5206" d="M 1000 -650 
Q 825 -375 575 -225 
Q 975 -75 1300 137 
Q 1625 350 1875 662 
Q 2125 975 2250 1350 
Q 2375 1725 2425 2275 
Q 1850 2275 1500 2250 
L 1500 2775 
Q 1900 2750 2525 2750 
L 5025 2750 
Q 4975 2375 4950 2100 
L 4750 250 
Q 4700 -200 4350 -350 
Q 4000 -500 3575 -525 
Q 3550 -275 3325 50 
Q 3850 25 4037 87 
Q 4225 150 4275 525 
L 4450 2275 
L 2950 2275 
Q 2875 1625 2737 1187 
Q 2600 750 2350 425 
Q 2100 100 1750 -175 
Q 1400 -450 1000 -650 
z
M 3950 5175 
Q 4125 4650 4662 3975 
Q 5200 3300 6175 2800 
Q 5975 2625 5775 2275 
Q 5325 2600 4987 2887 
Q 4650 3175 4425 3425 
Q 4200 3675 3925 4137 
Q 3650 4600 3475 5000 
Q 3750 5075 3950 5175 
z
M 2700 4825 
Q 2475 4425 2325 4125 
Q 2175 3825 2025 3587 
Q 1875 3350 1575 2950 
Q 1275 2550 850 2125 
Q 625 2350 400 2475 
Q 900 2925 1187 3300 
Q 1475 3675 1737 4112 
Q 2000 4550 2200 5075 
Q 2400 4925 2700 4825 
z
" transform="scale(0.015625)"/>
       </defs>
       <use xlink:href="#SimHei-6700"/>
       <use xlink:href="#SimHei-7ec8" x="100"/>
       <use xlink:href="#SimHei-6253" x="200"/>
       <use xlink:href="#SimHei-5206" x="300"/>
      </g>
     </g>
    </g>
    <g id="xtick_2">
     <g id="line2d_2">
      <g>
       <use xlink:href="#m3c5bb4487f" x="475.867635" y="877.835655" style="stroke: #000000; stroke-width: 0.8"/>
      </g>
     </g>
     <g id="text_2">
      <!-- 结构完整性得分 -->
      <g transform="translate(347.200108 1049.533479) rotate(-50) scale(0.28 -0.28)">
       <defs>
        <path id="SimHei-7ed3" d="M 5725 1925 
Q 5700 1600 5700 1200 
L 5700 350 
Q 5700 -125 5725 -475 
L 5225 -475 
L 5225 0 
L 3525 0 
L 3525 -525 
L 3025 -525 
Q 3050 125 3050 325 
L 3050 1250 
Q 3050 1550 3025 1925 
L 5725 1925 
z
M 1900 4850 
Q 1700 4600 1475 4200 
Q 1250 3800 925 3200 
Q 1475 3225 1725 3225 
Q 1950 3625 2100 4000 
Q 2350 3825 2650 3675 
Q 2525 3575 2212 3125 
Q 1900 2675 1225 1650 
Q 2050 1775 2525 1850 
Q 2450 1575 2450 1375 
Q 2225 1350 1650 1275 
Q 1075 1200 525 1050 
Q 425 1300 350 1550 
Q 650 1625 950 2012 
Q 1250 2400 1475 2825 
Q 1300 2825 962 2787 
Q 625 2750 375 2675 
Q 300 2925 225 3150 
Q 500 3375 812 3925 
Q 1125 4475 1300 5125 
Q 1600 4975 1900 4850 
z
M 4075 4175 
Q 4075 4600 4050 5175 
L 4575 5175 
Q 4550 4725 4550 4175 
L 5275 4175 
Q 5750 4175 6150 4200 
L 6150 3750 
Q 5750 3775 5300 3775 
L 4550 3775 
L 4550 2950 
L 5125 2950 
Q 5475 2950 5825 2975 
L 5825 2525 
Q 5525 2550 5100 2550 
L 3650 2550 
Q 3225 2550 2900 2525 
L 2900 2975 
Q 3225 2950 3600 2950 
L 4075 2950 
L 4075 3775 
L 3525 3775 
Q 3075 3775 2675 3750 
L 2675 4200 
Q 3000 4175 3475 4175 
L 4075 4175 
z
M 5225 400 
L 5225 1525 
L 3525 1525 
L 3525 400 
L 5225 400 
z
M 2575 650 
Q 2500 425 2525 175 
Q 2050 100 1450 0 
Q 850 -100 425 -225 
Q 325 100 225 350 
Q 750 375 1175 437 
Q 1600 500 2575 650 
z
" transform="scale(0.015625)"/>
        <path id="SimHei-6784" d="M 2250 1625 
Q 2050 2100 1825 2475 
L 1825 575 
Q 1825 50 1850 -500 
L 1325 -500 
Q 1350 75 1350 575 
L 1350 2375 
Q 1075 1750 525 1000 
Q 375 1200 175 1400 
Q 625 1900 912 2512 
Q 1200 3125 1250 3500 
Q 850 3500 475 3475 
L 475 3925 
Q 850 3900 1350 3900 
L 1350 4475 
Q 1350 4850 1325 5150 
L 1850 5150 
Q 1825 4900 1825 4475 
L 1825 3900 
Q 2150 3900 2525 3925 
L 2525 3475 
Q 2150 3500 1825 3500 
L 1825 2525 
Q 2025 2625 2225 2750 
Q 2475 2300 2700 1875 
Q 2475 1775 2250 1625 
z
M 4000 5050 
Q 3875 4875 3762 4625 
Q 3650 4375 3550 4125 
L 6025 4125 
Q 6000 3750 5975 3200 
Q 5975 1675 5875 350 
Q 5775 -200 5462 -337 
Q 5150 -475 4500 -525 
Q 4450 -250 4300 50 
Q 4825 25 5100 75 
Q 5375 125 5425 725 
Q 5525 2125 5500 3700 
L 3375 3700 
Q 3150 3200 2875 2750 
Q 2675 2900 2450 2975 
Q 2825 3525 3075 4150 
Q 3325 4775 3425 5250 
Q 3725 5100 4000 5050 
z
M 4450 1050 
Q 4175 1025 3662 950 
Q 3150 875 2800 725 
Q 2700 1025 2575 1300 
Q 2725 1350 2925 1675 
Q 3125 2000 3250 2337 
Q 3375 2675 3500 3150 
Q 3800 3025 4075 2875 
Q 3925 2725 3637 2162 
Q 3350 1600 3175 1350 
Q 3725 1375 4375 1425 
Q 4275 1775 4125 2175 
L 4625 2325 
Q 4775 1900 4900 1525 
Q 5025 1150 5075 800 
Q 4800 750 4550 650 
Q 4500 875 4450 1050 
z
" transform="scale(0.015625)"/>
        <path id="SimHei-5b8c" d="M 5125 2250 
Q 5600 2250 6025 2275 
L 6025 1800 
Q 5600 1825 5125 1825 
L 4050 1825 
L 4050 250 
Q 4050 25 4237 12 
Q 4425 0 4750 0 
Q 5100 0 5237 75 
Q 5375 150 5425 675 
Q 5775 475 6050 425 
Q 5900 -75 5712 -250 
Q 5525 -425 5300 -450 
L 4050 -450 
Q 3525 -425 3525 25 
L 3525 1825 
L 2625 1825 
Q 2600 1225 2400 725 
Q 2200 225 1700 -150 
Q 1200 -525 700 -700 
Q 500 -450 250 -250 
Q 925 -50 1300 212 
Q 1675 475 1837 800 
Q 2000 1125 2075 1825 
L 1300 1825 
Q 750 1825 350 1800 
L 350 2275 
Q 775 2250 1300 2250 
L 5125 2250 
z
M 2600 5000 
Q 2775 5100 3050 5275 
Q 3375 4850 3550 4500 
L 5900 4500 
Q 5850 4150 5850 3850 
Q 5850 3575 5900 3300 
L 5350 3300 
L 5350 4075 
L 1025 4075 
L 1025 3300 
L 450 3300 
Q 475 3625 475 3925 
Q 475 4225 450 4500 
L 2925 4500 
Q 2825 4675 2600 5000 
z
M 3900 3375 
Q 4375 3375 4800 3400 
L 4800 2900 
Q 4375 2925 3900 2925 
L 2350 2925 
Q 1875 2925 1425 2900 
L 1425 3400 
Q 1875 3375 2350 3375 
L 3900 3375 
z
" transform="scale(0.015625)"/>
        <path id="SimHei-6574" d="M 2400 2825 
Q 2700 2650 3050 2300 
L 2725 1975 
Q 2475 2275 2175 2500 
L 2175 1875 
L 1700 1875 
L 1700 2525 
Q 1425 2250 1200 2100 
Q 975 1950 550 1650 
Q 450 1875 200 2025 
Q 525 2150 862 2350 
Q 1200 2550 1450 2825 
L 525 2825 
Q 550 3125 550 3375 
Q 550 3650 525 3900 
L 1700 3900 
L 1700 4250 
Q 750 4250 375 4225 
L 375 4625 
Q 750 4600 1700 4600 
Q 1700 4875 1675 5175 
L 2200 5175 
Q 2175 4875 2175 4600 
Q 3050 4600 3425 4625 
L 3425 4225 
Q 3050 4250 2175 4250 
L 2175 3900 
L 3275 3900 
Q 3250 3650 3250 3375 
Q 3250 3125 3275 2825 
L 2400 2825 
z
M 4675 1675 
Q 5050 1675 5475 1700 
L 5475 1300 
Q 5050 1325 3425 1325 
L 3425 850 
Q 4925 850 5300 875 
L 5300 475 
Q 4925 500 3425 500 
L 3425 -50 
L 5175 -50 
Q 5550 -50 6025 -25 
L 6025 -425 
Q 5550 -400 5200 -400 
L 1200 -400 
Q 850 -400 375 -425 
L 375 -25 
Q 875 -50 1550 -50 
Q 1550 650 1525 950 
L 2050 950 
Q 2025 725 2025 -50 
L 2975 -50 
L 2975 1325 
Q 1350 1325 950 1300 
L 950 1700 
Q 1350 1675 1700 1675 
L 4675 1675 
z
M 3700 3225 
Q 3525 3350 3325 3450 
Q 3675 3825 3900 4375 
Q 4125 4925 4175 5200 
Q 4375 5125 4725 5025 
Q 4625 4925 4375 4425 
L 5425 4425 
Q 5725 4425 6100 4450 
L 6100 4050 
Q 5750 4075 5625 4075 
Q 5475 3275 4975 2725 
Q 5425 2425 6025 2350 
Q 5875 2175 5800 1875 
Q 5450 1975 5187 2112 
Q 4925 2250 4700 2450 
Q 4250 2125 3725 1875 
Q 3625 2075 3400 2275 
Q 3950 2400 4375 2725 
Q 4175 2950 3875 3450 
L 3700 3225 
z
M 4100 3825 
Q 4425 3250 4700 3000 
Q 5025 3425 5150 4075 
L 4250 4075 
L 4100 3825 
z
M 1700 3175 
L 1700 3550 
L 1000 3550 
L 1000 3175 
L 1700 3175 
z
M 2825 3175 
L 2825 3550 
L 2175 3550 
L 2175 3175 
L 2825 3175 
z
" transform="scale(0.015625)"/>
        <path id="SimHei-6027" d="M 3450 4525 
Q 3325 4075 3275 3750 
L 4050 3750 
L 4050 4275 
Q 4050 4700 4025 5100 
L 4550 5100 
Q 4525 4700 4525 4275 
L 4525 3750 
L 5025 3750 
Q 5350 3750 5800 3775 
L 5800 3300 
Q 5350 3325 5025 3325 
L 4525 3325 
L 4525 2000 
L 4975 2000 
Q 5350 2000 5725 2025 
L 5725 1550 
Q 5350 1575 4975 1575 
L 4525 1575 
L 4525 25 
L 5200 25 
Q 5625 25 6025 50 
L 6025 -400 
Q 5625 -375 5200 -375 
L 3275 -375 
Q 2825 -375 2400 -400 
L 2400 50 
Q 2825 25 3250 25 
L 4050 25 
L 4050 1575 
L 3625 1575 
Q 3300 1575 2875 1550 
L 2875 2025 
Q 3200 2000 3625 2000 
L 4050 2000 
L 4050 3325 
L 3175 3325 
Q 3100 2950 2775 2225 
Q 2500 2375 2325 2400 
Q 2675 3125 2775 3650 
Q 2875 4175 2950 4650 
Q 3200 4575 3450 4525 
z
M 1700 5150 
Q 1675 4650 1675 4175 
L 1675 425 
Q 1675 -100 1700 -625 
L 1175 -625 
Q 1200 -100 1200 425 
L 1200 4175 
Q 1200 4700 1175 5150 
L 1700 5150 
z
M 975 3725 
Q 825 2675 700 2150 
Q 450 2200 250 2250 
Q 425 2900 525 3800 
Q 725 3775 975 3725 
z
M 2125 4025 
Q 2325 3625 2525 3000 
Q 2300 2925 2125 2825 
Q 1950 3375 1750 3850 
Q 1950 3950 2125 4025 
z
" transform="scale(0.015625)"/>
        <path id="SimHei-5f97" d="M 5575 4975 
Q 5550 4625 5550 3950 
Q 5550 3300 5575 2900 
L 2675 2900 
Q 2700 3300 2700 3950 
Q 2700 4600 2675 4975 
L 5575 4975 
z
M 1950 1625 
Q 2400 1600 2950 1600 
L 4775 1600 
L 4775 2100 
L 3125 2100 
Q 2700 2100 2325 2075 
L 2325 2500 
Q 2700 2475 3125 2475 
L 5000 2475 
Q 5525 2475 5900 2500 
L 5900 2075 
Q 5575 2100 5225 2100 
L 5225 1600 
Q 5675 1600 6075 1625 
L 6075 1175 
Q 5700 1200 5225 1200 
L 5225 250 
Q 5250 -275 4950 -400 
Q 4650 -525 4175 -600 
Q 4125 -350 3975 -25 
Q 4550 -25 4675 62 
Q 4800 150 4775 425 
L 4775 1200 
L 2950 1200 
Q 2400 1200 1950 1175 
L 1950 1625 
z
M 1150 -550 
Q 1175 125 1175 575 
L 1175 2075 
Q 950 1825 625 1500 
Q 475 1750 275 1925 
Q 775 2300 1150 2775 
Q 1525 3250 1800 3775 
Q 2000 3600 2275 3450 
Q 2050 3150 1625 2575 
L 1625 575 
Q 1625 125 1650 -550 
L 1150 -550 
z
M 2150 4875 
Q 1450 4000 825 3375 
Q 675 3575 475 3750 
Q 1175 4325 1700 5200 
Q 1900 5025 2150 4875 
z
M 5100 3300 
L 5100 3775 
L 3150 3775 
L 3150 3300 
L 5100 3300 
z
M 5100 4150 
L 5100 4600 
L 3150 4600 
L 3150 4150 
L 5100 4150 
z
M 2950 1050 
Q 3325 525 3550 175 
Q 3375 75 3100 -125 
Q 2950 275 2575 750 
Q 2800 900 2950 1050 
z
" transform="scale(0.015625)"/>
       </defs>
       <use xlink:href="#SimHei-7ed3"/>
       <use xlink:href="#SimHei-6784" x="100"/>
       <use xlink:href="#SimHei-5b8c" x="200"/>
       <use xlink:href="#SimHei-6574" x="300"/>
       <use xlink:href="#SimHei-6027" x="400"/>
       <use xlink:href="#SimHei-5f97" x="500"/>
       <use xlink:href="#SimHei-5206" x="600"/>
      </g>
     </g>
    </g>
    <g id="xtick_3">
     <g id="line2d_3">
      <g>
       <use xlink:href="#m3c5bb4487f" x="701.866318" y="877.835655" style="stroke: #000000; stroke-width: 0.8"/>
      </g>
     </g>
     <g id="text_3">
      <!-- 逻辑清晰度得分 -->
      <g transform="translate(573.19879 1049.39287) rotate(-50) scale(0.28 -0.28)">
       <defs>
        <path id="SimHei-903b" d="M 3825 3025 
Q 3625 2875 3450 2675 
L 5675 2675 
Q 5175 1600 4625 1150 
Q 4075 700 3625 512 
Q 3175 325 2400 150 
Q 2300 450 2075 675 
Q 2500 725 2962 812 
Q 3425 900 3775 1100 
Q 3400 1425 3050 1650 
Q 3275 1875 3375 2025 
Q 3875 1675 4175 1400 
Q 4600 1725 4900 2275 
L 3200 2275 
Q 2800 1850 2350 1475 
Q 2125 1700 1925 1850 
Q 2825 2450 3275 3325 
L 2075 3325 
Q 2100 3800 2100 4200 
Q 2100 4625 2075 5075 
L 5800 5075 
Q 5775 4775 5775 4175 
Q 5775 3600 5800 3325 
L 3350 3325 
Q 3575 3150 3825 3025 
z
M 1450 3200 
Q 1425 2700 1425 2275 
L 1425 575 
Q 2150 -25 3700 -25 
Q 5275 -25 6175 75 
Q 6000 -225 5950 -525 
Q 4850 -525 4137 -512 
Q 3425 -500 2937 -437 
Q 2450 -375 2162 -287 
Q 1875 -200 1600 -12 
Q 1325 175 1150 0 
Q 975 -175 650 -550 
Q 500 -350 225 -175 
Q 600 100 975 425 
L 975 2800 
Q 650 2800 275 2775 
L 275 3225 
Q 650 3200 1450 3200 
z
M 3225 3700 
L 3225 4675 
L 2575 4675 
L 2575 3700 
L 3225 3700 
z
M 1150 5225 
Q 1425 4350 1500 4050 
Q 1225 3975 1025 3850 
Q 875 4475 650 5100 
Q 875 5150 1150 5225 
z
M 5300 3700 
L 5300 4675 
L 4675 4675 
L 4675 3700 
L 5300 3700 
z
M 4250 3700 
L 4250 4675 
L 3650 4675 
L 3650 3700 
L 4250 3700 
z
" transform="scale(0.015625)"/>
        <path id="SimHei-8f91" d="M 6100 700 
Q 6075 450 6075 300 
Q 6000 300 5500 225 
Q 5500 -200 5525 -675 
L 5050 -675 
Q 5075 -275 5075 150 
Q 3325 -50 2800 -200 
L 2650 300 
L 3150 350 
L 3150 2725 
Q 2900 2725 2650 2700 
L 2650 3125 
Q 3025 3100 3450 3100 
L 5500 3100 
Q 5725 3100 6025 3125 
L 6025 2700 
Q 5800 2725 5500 2725 
L 5500 600 
Q 5750 650 6100 700 
z
M 2875 1000 
Q 2550 900 2050 750 
Q 2050 75 2075 -650 
L 1600 -650 
Q 1625 75 1625 650 
Q 775 425 475 325 
Q 425 450 300 800 
Q 600 825 1625 1075 
L 1625 2000 
L 1025 2000 
Q 725 2000 525 1925 
L 350 2375 
Q 575 2450 762 2887 
Q 950 3325 1125 3950 
Q 900 3950 325 3925 
L 325 4350 
Q 1000 4325 1225 4325 
Q 1375 4800 1450 5200 
Q 1650 5100 1950 5050 
Q 1800 4700 1675 4325 
Q 2375 4325 2925 4350 
L 2925 3925 
Q 2300 3950 1575 3950 
Q 1400 3425 1025 2400 
L 1625 2400 
Q 1625 2925 1600 3300 
L 2075 3300 
Q 2050 2950 2050 2400 
L 2775 2400 
L 2775 2000 
L 2050 2000 
L 2050 1150 
Q 2525 1275 2875 1400 
L 2875 1000 
z
M 5600 4825 
Q 5575 4550 5575 4150 
Q 5575 3775 5600 3500 
L 3150 3500 
Q 3175 3850 3175 4200 
Q 3175 4550 3150 4825 
L 5600 4825 
z
M 5150 3850 
L 5150 4475 
L 3575 4475 
L 3575 3850 
L 5150 3850 
z
M 5075 1325 
L 5075 1850 
L 3575 1850 
L 3575 1325 
L 5075 1325 
z
M 5075 2200 
L 5075 2725 
L 3575 2725 
L 3575 2200 
L 5075 2200 
z
M 5075 550 
L 5075 975 
L 3575 975 
L 3575 375 
L 5075 550 
z
" transform="scale(0.015625)"/>
        <path id="SimHei-6e05" d="M 4500 -125 
Q 5000 -125 5000 25 
L 5000 375 
L 2925 375 
L 2925 -600 
L 2425 -600 
Q 2450 -150 2450 300 
L 2450 1425 
Q 2450 1775 2425 2300 
L 5525 2300 
Q 5500 1825 5500 1450 
L 5500 -75 
Q 5500 -325 5375 -412 
Q 5250 -500 4775 -625 
Q 4750 -400 4500 -125 
z
M 4175 3450 
L 4175 3025 
L 4975 3025 
Q 5500 3025 6000 3050 
L 6000 2625 
Q 5450 2650 4925 2650 
L 3200 2650 
Q 2425 2650 1900 2625 
L 1900 3050 
Q 2400 3025 3100 3025 
L 3675 3025 
L 3675 3450 
L 3175 3450 
Q 2750 3450 2300 3425 
L 2300 3850 
Q 2750 3825 3175 3825 
L 3675 3825 
L 3675 4225 
L 3225 4225 
Q 2600 4225 2125 4200 
L 2125 4625 
Q 2600 4600 3200 4600 
L 3675 4600 
Q 3675 4900 3650 5175 
L 4200 5175 
Q 4175 4850 4175 4600 
L 4875 4600 
Q 5200 4600 5750 4625 
L 5750 4200 
Q 5200 4225 4900 4225 
L 4175 4225 
L 4175 3825 
L 4675 3825 
Q 4875 3825 5675 3850 
L 5675 3425 
Q 4900 3450 4700 3450 
L 4175 3450 
z
M 1875 1500 
Q 1700 1200 1362 525 
Q 1025 -150 825 -525 
Q 575 -275 375 -175 
Q 1000 600 1500 1800 
Q 1675 1650 1875 1500 
z
M 5000 1500 
L 5000 1925 
L 2925 1925 
L 2925 1500 
L 5000 1500 
z
M 5000 750 
L 5000 1125 
L 2925 1125 
L 2925 750 
L 5000 750 
z
M 1325 2350 
Q 1050 2575 800 2737 
Q 550 2900 325 3025 
Q 450 3200 575 3425 
Q 850 3250 1137 3087 
Q 1425 2925 1650 2800 
Q 1475 2575 1325 2350 
z
M 950 4900 
Q 1650 4400 1925 4175 
Q 1725 4000 1575 3800 
Q 1375 4000 1100 4225 
Q 825 4450 625 4575 
Q 825 4750 950 4900 
z
" transform="scale(0.015625)"/>
        <path id="SimHei-6670" d="M 1925 4600 
Q 1900 4000 1900 3425 
L 1900 1475 
Q 1900 900 1925 300 
L 1475 300 
L 1475 700 
L 775 700 
L 775 -50 
L 325 -50 
Q 350 625 350 1275 
L 350 3425 
Q 350 4000 325 4600 
L 1925 4600 
z
M 6175 4450 
Q 5800 4425 5475 4375 
Q 5150 4325 4650 4275 
L 4650 3225 
Q 5925 3225 6175 3250 
L 6175 2825 
Q 5875 2850 5675 2850 
L 5675 675 
Q 5675 175 5700 -450 
L 5225 -450 
Q 5250 175 5250 675 
L 5250 2850 
L 4650 2850 
Q 4725 725 3900 -450 
Q 3750 -250 3425 -150 
Q 3725 175 3912 637 
Q 4100 1100 4162 1687 
Q 4225 2275 4212 3175 
Q 4200 4075 4150 4600 
Q 4500 4600 5012 4712 
Q 5525 4825 5800 4925 
Q 6000 4650 6175 4450 
z
M 2825 3675 
Q 2825 4525 2800 5075 
L 3275 5075 
Q 3250 4575 3250 3675 
L 3875 3675 
L 3875 3300 
L 3250 3300 
L 3250 2350 
Q 3400 2425 3525 2525 
Q 3875 2050 4050 1750 
Q 3800 1625 3650 1475 
Q 3500 1800 3250 2175 
L 3250 700 
Q 3250 175 3275 -475 
L 2800 -475 
Q 2825 200 2825 700 
L 2825 2125 
Q 2675 1525 2325 825 
Q 2150 1075 1925 1175 
Q 2125 1425 2350 1925 
Q 2575 2425 2750 3300 
L 2200 3300 
L 2200 3675 
L 2825 3675 
z
M 1475 1075 
L 1475 2550 
L 775 2550 
L 775 1075 
L 1475 1075 
z
M 1475 2925 
L 1475 4225 
L 775 4225 
L 775 2925 
L 1475 2925 
z
" transform="scale(0.015625)"/>
        <path id="SimHei-5ea6" d="M 1750 1675 
Q 2450 1650 2875 1650 
L 5200 1650 
Q 4975 1250 4650 850 
Q 4325 450 4025 200 
Q 4350 50 4950 -50 
Q 5550 -150 6100 -150 
Q 5950 -300 5825 -650 
Q 5100 -550 4550 -412 
Q 4000 -275 3625 -100 
Q 3100 -325 2587 -462 
Q 2075 -600 1525 -675 
Q 1450 -475 1225 -250 
Q 1675 -250 2250 -125 
Q 2825 0 3250 200 
Q 2825 550 2400 1275 
L 1750 1250 
L 1750 1675 
z
M 2975 5075 
Q 3250 5150 3475 5250 
Q 3625 4975 3775 4525 
L 4700 4525 
Q 4975 4525 5700 4550 
L 5700 4100 
Q 5000 4125 4650 4125 
L 1375 4125 
Q 1375 3000 1350 2312 
Q 1325 1625 1212 950 
Q 1100 275 725 -525 
Q 500 -375 250 -300 
Q 650 400 762 1075 
Q 875 1750 887 2800 
Q 900 3850 875 4525 
L 3200 4525 
Q 3100 4850 2975 5075 
z
M 2475 3300 
Q 2475 3700 2450 3925 
L 2975 3925 
Q 2950 3725 2950 3300 
L 4300 3300 
Q 4300 3700 4275 3950 
L 4800 3950 
Q 4775 3650 4775 3300 
Q 5325 3300 5725 3325 
L 5725 2900 
Q 5350 2925 4775 2925 
Q 4775 2250 4800 1950 
L 2450 1950 
Q 2475 2350 2475 2925 
Q 2175 2925 1600 2900 
L 1600 3325 
Q 2175 3300 2475 3300 
z
M 4300 2350 
L 4300 2925 
L 2950 2925 
L 2950 2350 
L 4300 2350 
z
M 2875 1275 
Q 3200 775 3650 425 
Q 4025 700 4425 1275 
L 2900 1275 
L 2875 1275 
z
" transform="scale(0.015625)"/>
       </defs>
       <use xlink:href="#SimHei-903b"/>
       <use xlink:href="#SimHei-8f91" x="100"/>
       <use xlink:href="#SimHei-6e05" x="200"/>
       <use xlink:href="#SimHei-6670" x="300"/>
       <use xlink:href="#SimHei-5ea6" x="400"/>
       <use xlink:href="#SimHei-5f97" x="500"/>
       <use xlink:href="#SimHei-5206" x="600"/>
      </g>
     </g>
    </g>
    <g id="xtick_4">
     <g id="line2d_4">
      <g>
       <use xlink:href="#m3c5bb4487f" x="927.865" y="877.835655" style="stroke: #000000; stroke-width: 0.8"/>
      </g>
     </g>
     <g id="text_4">
      <!-- 语言连贯性得分 -->
      <g transform="translate(799.197473 1049.322565) rotate(-50) scale(0.28 -0.28)">
       <defs>
        <path id="SimHei-8bed" d="M 5100 5050 
Q 5500 5050 5875 5075 
L 5875 4675 
Q 5500 4700 4125 4700 
L 4000 3975 
L 5550 3975 
L 5400 2600 
Q 5775 2600 6150 2625 
L 6150 2200 
Q 5825 2225 5600 2225 
L 3000 2225 
Q 2550 2225 2075 2200 
L 2075 2625 
Q 2425 2600 3200 2600 
L 3400 3625 
Q 2900 3625 2450 3575 
L 2450 4025 
Q 2975 4000 3525 4000 
L 3625 4700 
Q 2725 4700 2250 4675 
L 2250 5075 
Q 2700 5050 3200 5050 
L 5100 5050 
z
M 5600 1650 
Q 5575 1350 5575 925 
L 5575 75 
Q 5575 -300 5600 -625 
L 5100 -625 
L 5100 -250 
L 3200 -250 
L 3200 -650 
L 2700 -650 
Q 2725 -325 2725 25 
L 2725 800 
Q 2725 1350 2700 1650 
L 5600 1650 
z
M 2050 1400 
Q 2175 1200 2375 925 
Q 2050 600 1812 312 
Q 1575 25 1275 -425 
Q 1100 -225 825 -25 
Q 975 125 1062 250 
Q 1150 375 1150 650 
L 1150 2875 
L 925 2875 
Q 600 2875 225 2850 
L 225 3325 
Q 575 3300 925 3300 
L 1650 3300 
Q 1625 2800 1625 2275 
L 1625 825 
Q 1900 1150 2050 1400 
z
M 5100 150 
L 5100 1225 
L 3200 1225 
L 3200 150 
L 5100 150 
z
M 4850 2600 
L 5000 3600 
L 3900 3600 
L 3700 2600 
L 4850 2600 
z
M 1425 3975 
Q 1000 4575 725 4825 
Q 875 5000 1075 5150 
Q 1300 4900 1800 4300 
Q 1600 4150 1425 3975 
z
" transform="scale(0.015625)"/>
        <path id="SimHei-8a00" d="M 5150 1500 
Q 5125 1000 5125 475 
Q 5125 -50 5150 -575 
L 4625 -575 
L 4625 -175 
L 1725 -175 
L 1725 -575 
L 1225 -575 
Q 1250 -75 1250 450 
Q 1250 975 1225 1500 
L 5150 1500 
z
M 4625 225 
L 4625 1125 
L 1725 1125 
L 1725 225 
L 4625 225 
z
M 3125 5225 
Q 3325 4800 3450 4425 
L 4925 4425 
Q 5325 4425 5850 4450 
L 5850 4000 
Q 5325 4025 5075 4025 
L 1425 4025 
Q 1050 4025 500 4000 
L 500 4450 
Q 1050 4425 1275 4425 
L 2875 4425 
Q 2825 4650 2600 5050 
Q 2825 5075 3125 5225 
z
M 4300 3425 
Q 4625 3425 5125 3450 
L 5125 3000 
Q 4650 3050 4300 3050 
L 2000 3050 
Q 1650 3050 1200 3025 
L 1200 3450 
Q 1650 3425 2000 3425 
L 4300 3425 
z
M 4275 2450 
Q 4625 2450 5100 2475 
L 5100 2050 
Q 4625 2075 4250 2075 
L 2100 2075 
Q 1725 2075 1175 2050 
L 1175 2475 
Q 1725 2450 2100 2450 
L 4275 2450 
z
" transform="scale(0.015625)"/>
        <path id="SimHei-8fde" d="M 3175 4350 
Q 3425 4925 3475 5200 
Q 3875 5025 4050 4975 
Q 3925 4875 3675 4350 
L 5025 4350 
Q 5550 4350 5850 4375 
L 5850 3925 
Q 5525 3950 5100 3950 
L 3475 3950 
Q 3350 3700 2875 2925 
L 3875 2925 
Q 3875 3400 3850 3725 
L 4350 3725 
Q 4325 3450 4325 2925 
Q 5575 2925 5650 2950 
L 5650 2475 
Q 5500 2525 4325 2525 
L 4325 1700 
L 5250 1700 
Q 5800 1700 5950 1725 
L 5950 1275 
Q 5650 1300 5250 1300 
L 4325 1300 
Q 4325 600 4350 75 
L 3850 75 
Q 3875 600 3875 1300 
Q 2150 1300 1975 1275 
L 1975 1725 
Q 2650 1700 3875 1700 
L 3875 2525 
L 3075 2525 
Q 2525 2500 2375 2450 
L 2200 2900 
Q 2400 3025 2587 3275 
Q 2775 3525 2975 3950 
Q 2325 3950 1975 3925 
L 1975 4375 
Q 2300 4350 3175 4350 
z
M 1625 2925 
Q 1600 2425 1600 2100 
L 1600 550 
Q 2325 -75 3825 -75 
Q 5350 -75 6175 0 
Q 6025 -250 5975 -550 
Q 4975 -550 4175 -537 
Q 3375 -525 2750 -412 
Q 2125 -300 1762 -50 
Q 1400 200 1175 -12 
Q 950 -225 675 -550 
Q 525 -350 275 -175 
Q 850 300 1100 475 
L 1100 2525 
Q 775 2525 400 2500 
L 400 2950 
Q 800 2925 1125 2925 
L 1625 2925 
z
M 975 4950 
Q 1450 4275 1775 3750 
Q 1550 3675 1300 3500 
Q 1175 3875 550 4650 
Q 775 4850 975 4950 
z
" transform="scale(0.015625)"/>
        <path id="SimHei-8d2f" d="M 1275 3675 
Q 800 3675 325 3650 
L 325 4075 
Q 800 4050 1300 4050 
Q 1350 4625 1350 5000 
L 5425 5000 
Q 5375 4600 5325 4050 
Q 5625 4050 6100 4075 
L 6100 3650 
Q 5625 3675 5300 3675 
Q 5250 3250 5225 2775 
L 1175 2775 
Q 1250 3325 1275 3675 
z
M 5250 2400 
Q 5225 2075 5225 1625 
Q 5225 1175 5250 725 
L 4725 725 
L 4725 2025 
L 1750 2025 
L 1750 575 
L 1225 575 
Q 1250 1200 1250 1600 
Q 1250 2025 1225 2400 
L 5250 2400 
z
M 3525 1625 
Q 3375 1325 3275 975 
Q 3175 625 2925 312 
Q 2675 0 2175 -287 
Q 1675 -575 825 -675 
Q 725 -375 550 -125 
Q 1250 -125 1675 25 
Q 2100 175 2350 412 
Q 2600 650 2725 937 
Q 2850 1225 2900 1775 
Q 3200 1700 3525 1625 
z
M 3775 875 
Q 4300 650 5875 -125 
Q 5675 -375 5525 -625 
Q 5125 -350 3525 400 
Q 3675 675 3775 875 
z
M 4825 4050 
L 4875 4600 
L 3550 4600 
L 3500 4050 
L 4825 4050 
z
M 4750 3150 
L 4800 3675 
L 3475 3675 
L 3425 3150 
L 4750 3150 
z
M 3025 4050 
L 3075 4600 
L 1850 4600 
L 1800 4050 
L 3025 4050 
z
M 2950 3150 
L 3000 3675 
L 1775 3675 
L 1725 3150 
L 2950 3150 
z
" transform="scale(0.015625)"/>
       </defs>
       <use xlink:href="#SimHei-8bed"/>
       <use xlink:href="#SimHei-8a00" x="100"/>
       <use xlink:href="#SimHei-8fde" x="200"/>
       <use xlink:href="#SimHei-8d2f" x="300"/>
       <use xlink:href="#SimHei-6027" x="400"/>
       <use xlink:href="#SimHei-5f97" x="500"/>
       <use xlink:href="#SimHei-5206" x="600"/>
      </g>
     </g>
    </g>
    <g id="xtick_5">
     <g id="line2d_5">
      <g>
       <use xlink:href="#m3c5bb4487f" x="1153.863682" y="877.835655" style="stroke: #000000; stroke-width: 0.8"/>
      </g>
     </g>
     <g id="text_5">
      <!-- 内容独特性和创新性得分 -->
      <g transform="translate(953.203943 1135.400762) rotate(-50) scale(0.28 -0.28)">
       <defs>
        <path id="SimHei-5185" d="M 1425 1300 
Q 2175 1825 2537 2375 
Q 2900 2925 2925 3750 
L 1225 3750 
L 1225 -500 
L 650 -500 
Q 700 0 700 350 
L 700 3125 
Q 700 3625 675 4175 
L 2950 4175 
Q 2950 4850 2925 5175 
Q 3325 5150 3550 5150 
Q 3425 4825 3425 4175 
L 5775 4175 
Q 5725 3650 5725 3125 
L 5725 75 
Q 5725 -300 5425 -387 
Q 5125 -475 4600 -550 
Q 4525 -300 4250 0 
Q 4850 0 5025 37 
Q 5200 75 5200 275 
L 5200 3750 
L 3400 3750 
Q 3400 3300 3325 2875 
Q 3550 2700 4125 2262 
Q 4700 1825 4950 1575 
Q 4675 1350 4525 1175 
Q 4100 1675 3175 2425 
Q 2725 1650 2000 975 
Q 1700 1225 1425 1300 
z
" transform="scale(0.015625)"/>
        <path id="SimHei-5bb9" d="M 3350 2725 
Q 4025 2150 4687 1850 
Q 5350 1550 6100 1425 
Q 5875 1250 5800 950 
Q 5325 1075 4850 1275 
Q 4850 -200 4875 -575 
L 4400 -575 
L 4400 -225 
L 2050 -225 
L 2050 -650 
L 1575 -650 
Q 1600 -325 1600 1275 
Q 1125 1050 550 825 
Q 450 1025 225 1250 
Q 1325 1500 2137 2137 
Q 2950 2775 3125 3275 
Q 3375 3125 3600 3025 
L 3350 2725 
z
M 5750 4350 
Q 5725 4125 5725 3875 
Q 5725 3625 5750 3400 
L 5250 3400 
L 5250 4000 
L 1200 4000 
L 1200 3375 
L 700 3375 
Q 725 3650 725 3875 
Q 725 4125 700 4350 
L 5750 4350 
z
M 4400 150 
L 4400 1025 
L 2050 1025 
L 2050 150 
L 4400 150 
z
M 4625 1400 
Q 3875 1700 3100 2425 
Q 2525 1850 1750 1400 
L 4625 1400 
z
M 4000 3725 
Q 5175 3075 5550 2850 
Q 5375 2650 5250 2450 
Q 4400 3025 3725 3375 
Q 3925 3575 4000 3725 
z
M 775 2775 
Q 1875 3225 2325 3700 
Q 2400 3575 2650 3325 
Q 1725 2700 1100 2425 
Q 975 2625 775 2775 
z
M 2650 5025 
Q 2850 5125 3125 5300 
Q 3400 4950 3575 4600 
Q 3225 4475 3075 4375 
Q 3050 4475 2650 5025 
z
" transform="scale(0.015625)"/>
        <path id="SimHei-72ec" d="M 5125 775 
Q 5350 850 5600 950 
Q 5725 650 5875 262 
Q 6025 -125 6125 -425 
Q 5875 -500 5600 -625 
Q 5525 -350 5450 -125 
Q 4350 -250 3600 -337 
Q 2850 -425 2525 -500 
Q 2425 -200 2325 50 
Q 2825 50 3925 125 
L 3925 1500 
L 3225 1500 
L 3225 1050 
L 2750 1050 
Q 2775 1600 2775 2575 
Q 2775 3575 2750 4000 
L 3925 4000 
L 3925 4475 
Q 3925 4875 3900 5225 
L 4475 5225 
Q 4425 4950 4400 4475 
L 4400 4000 
L 5650 4000 
Q 5625 3600 5625 2775 
Q 5625 1950 5650 1500 
L 4400 1500 
L 4400 125 
Q 4625 150 5350 225 
Q 5225 525 5125 775 
z
M 2600 4600 
Q 2400 4500 2225 4312 
Q 2050 4125 1800 3850 
Q 1975 3450 2087 2862 
Q 2200 2275 2225 1662 
Q 2250 1050 2137 437 
Q 2025 -175 1625 -412 
Q 1225 -650 950 -700 
Q 850 -350 675 -125 
Q 1175 -50 1400 112 
Q 1625 275 1712 662 
Q 1800 1050 1750 2050 
Q 1175 1350 575 850 
Q 425 1075 250 1250 
Q 550 1400 987 1825 
Q 1425 2250 1650 2600 
Q 1575 3100 1425 3500 
Q 1075 3175 550 2825 
Q 400 3050 250 3225 
Q 700 3425 1200 3900 
Q 875 4300 550 4475 
Q 725 4675 875 4900 
Q 1225 4625 1550 4225 
Q 1900 4575 2150 5000 
Q 2350 4775 2600 4600 
z
M 5175 1925 
L 5175 3575 
L 4400 3575 
L 4400 1925 
L 5175 1925 
z
M 3925 1925 
L 3925 3575 
L 3225 3575 
L 3225 1925 
L 3925 1925 
z
" transform="scale(0.015625)"/>
        <path id="SimHei-7279" d="M 4050 3150 
L 4050 4050 
L 3675 4050 
Q 3275 4050 2975 4025 
L 2975 4475 
Q 3250 4450 3675 4450 
L 4050 4450 
Q 4050 4950 4000 5200 
L 4525 5200 
Q 4500 4950 4500 4450 
L 5075 4450 
Q 5450 4450 5800 4475 
L 5800 4025 
Q 5550 4050 5075 4050 
L 4500 4050 
L 4500 3150 
L 5450 3150 
Q 5825 3150 6150 3175 
L 6150 2725 
Q 5850 2750 5500 2750 
L 5275 2750 
L 5275 2000 
Q 5825 2000 6100 2025 
L 6100 1550 
Q 5800 1575 5275 1575 
L 5275 -75 
Q 5250 -375 5050 -487 
Q 4850 -600 4275 -675 
Q 4225 -375 4075 -100 
Q 4525 -125 4675 -100 
Q 4825 -75 4825 150 
L 4825 1575 
L 3600 1575 
Q 3175 1575 2850 1550 
L 2850 2025 
Q 3125 2000 3600 2000 
L 4825 2000 
L 4825 2750 
L 3575 2750 
Q 3125 2750 2775 2725 
L 2775 3175 
Q 3125 3150 3550 3150 
L 4050 3150 
z
M 1150 4275 
Q 1050 4125 950 3600 
L 1500 3600 
L 1500 4425 
Q 1500 4800 1475 5200 
L 2000 5200 
Q 1950 4825 1950 4425 
L 1950 3600 
Q 2300 3600 2600 3625 
L 2600 3175 
Q 2325 3200 1950 3200 
L 1950 2075 
Q 2275 2200 2575 2325 
Q 2600 2125 2650 1900 
Q 2375 1800 1950 1625 
L 1950 225 
Q 1950 -175 1975 -650 
L 1475 -650 
Q 1500 -200 1500 225 
L 1500 1450 
Q 850 1200 550 1025 
Q 450 1275 275 1550 
Q 600 1575 1500 1925 
L 1500 3200 
L 850 3200 
Q 750 2775 675 2450 
Q 425 2550 225 2600 
Q 350 2950 462 3487 
Q 575 4025 600 4400 
Q 900 4325 1150 4275 
z
M 3600 1200 
Q 3800 750 3975 325 
Q 3750 275 3500 150 
Q 3325 675 3125 1025 
Q 3375 1100 3600 1200 
z
" transform="scale(0.015625)"/>
        <path id="SimHei-548c" d="M 5875 4200 
Q 5850 3700 5850 3275 
L 5850 700 
Q 5850 250 5875 -25 
L 5375 -25 
L 5375 575 
L 4175 575 
L 4175 -75 
L 3700 -75 
Q 3725 500 3725 625 
L 3725 3275 
Q 3725 3700 3700 4200 
L 5875 4200 
z
M 3275 4450 
Q 3050 4450 2250 4325 
L 2250 3200 
L 2625 3200 
Q 3000 3200 3425 3225 
L 3425 2775 
Q 3000 2800 2650 2800 
L 2250 2800 
L 2250 225 
Q 2250 -200 2275 -550 
L 1775 -550 
Q 1800 -150 1800 225 
L 1800 1850 
Q 1425 1150 675 250 
Q 550 425 275 600 
Q 825 1125 1237 1812 
Q 1650 2500 1700 2800 
L 1250 2800 
Q 700 2800 450 2775 
L 450 3225 
Q 725 3200 1250 3200 
L 1800 3200 
L 1800 4250 
Q 1475 4200 775 4125 
Q 725 4375 625 4575 
Q 1100 4600 1825 4700 
Q 2550 4800 3050 5000 
Q 3100 4725 3275 4450 
z
M 5375 975 
L 5375 3775 
L 4175 3775 
L 4175 975 
L 5375 975 
z
M 3075 1000 
Q 2750 1625 2325 2100 
Q 2475 2200 2700 2400 
Q 3175 1875 3500 1325 
Q 3250 1175 3075 1000 
z
" transform="scale(0.015625)"/>
        <path id="SimHei-521b" d="M 2125 850 
Q 2050 1125 1925 1400 
Q 2400 1400 2537 1525 
Q 2675 1650 2650 2700 
L 1500 2700 
L 1500 375 
Q 1500 25 1800 25 
L 2825 25 
Q 3000 0 3087 200 
Q 3175 400 3200 700 
Q 3400 575 3725 475 
Q 3550 -175 3387 -287 
Q 3225 -400 2950 -400 
L 1550 -400 
Q 1050 -400 1050 125 
L 1050 2250 
Q 1050 2625 1025 3075 
Q 850 2875 625 2650 
Q 400 2900 200 3025 
Q 475 3225 725 3462 
Q 975 3700 1200 4000 
Q 1425 4300 1625 4600 
Q 1825 4900 1975 5275 
Q 2175 5125 2525 4950 
Q 2375 4850 2275 4750 
Q 2500 4575 2850 4350 
Q 3200 4125 3725 3600 
Q 3525 3450 3350 3200 
Q 2875 3775 2612 3975 
Q 2350 4175 2075 4375 
Q 1700 3850 1475 3575 
L 1100 3150 
L 3150 3150 
Q 3125 2425 3125 2025 
Q 3125 1650 3062 1387 
Q 3000 1125 2750 1012 
Q 2500 900 2125 850 
z
M 5725 5100 
Q 5700 4675 5700 4225 
L 5700 100 
Q 5700 -325 5487 -425 
Q 5275 -525 4775 -600 
Q 4700 -275 4550 -25 
Q 5000 -25 5125 0 
Q 5250 25 5250 275 
L 5250 4225 
Q 5250 4625 5225 5100 
L 5725 5100 
z
M 4425 4225 
Q 4400 3825 4400 3350 
L 4400 1550 
Q 4400 1075 4425 750 
L 3900 750 
Q 3925 1150 3925 1550 
L 3925 3425 
Q 3925 3800 3900 4225 
L 4425 4225 
z
" transform="scale(0.015625)"/>
        <path id="SimHei-65b0" d="M 6125 4650 
Q 5750 4650 4275 4500 
L 4275 3225 
L 5575 3225 
Q 5850 3225 6150 3250 
L 6150 2775 
Q 5800 2800 5550 2800 
L 5550 225 
Q 5550 -200 5575 -675 
L 5050 -675 
Q 5075 -200 5075 200 
L 5075 2800 
L 4275 2800 
Q 4275 2175 4225 1600 
Q 4175 1025 4012 462 
Q 3850 -100 3525 -700 
Q 3275 -550 3025 -450 
Q 3425 125 3587 762 
Q 3750 1400 3775 1875 
Q 3800 2350 3800 3300 
Q 3800 4275 3775 4850 
Q 4900 4900 5800 5200 
Q 6000 4800 6125 4650 
z
M 2975 3825 
Q 2800 3725 2575 3050 
Q 3000 3050 3450 3075 
L 3450 2575 
Q 3025 2600 2175 2600 
L 2175 1975 
Q 2950 1975 3400 2000 
L 3400 1500 
Q 2950 1525 2175 1525 
L 2175 0 
Q 2175 -375 1937 -500 
Q 1700 -625 1325 -625 
Q 1225 -325 1075 -75 
Q 1425 -100 1562 -75 
Q 1700 -50 1700 150 
L 1700 1525 
Q 900 1525 450 1500 
L 450 2000 
Q 925 1975 1700 1975 
L 1700 2600 
Q 775 2600 325 2575 
L 325 3075 
Q 775 3050 1175 3050 
L 2125 3050 
Q 2325 3650 2425 3975 
Q 2625 3925 2975 3825 
z
M 2125 5275 
Q 2250 4750 2275 4550 
Q 2850 4550 3350 4575 
L 3350 4075 
Q 2825 4100 2500 4100 
L 1300 4100 
Q 875 4100 475 4075 
L 475 4575 
Q 900 4550 1300 4550 
L 1750 4550 
Q 1700 4825 1600 5125 
Q 1850 5200 2125 5275 
z
M 1525 1050 
Q 1375 875 1175 612 
Q 975 350 600 -125 
Q 425 50 225 175 
Q 750 750 1050 1375 
Q 1300 1175 1525 1050 
z
M 2725 1300 
Q 3025 900 3275 475 
Q 3025 350 2875 150 
Q 2675 600 2350 1025 
Q 2525 1175 2725 1300 
z
M 1275 3950 
Q 1450 3600 1575 3250 
Q 1350 3200 1150 3100 
Q 1025 3475 875 3775 
Q 1050 3875 1275 3950 
z
" transform="scale(0.015625)"/>
       </defs>
       <use xlink:href="#SimHei-5185"/>
       <use xlink:href="#SimHei-5bb9" x="100"/>
       <use xlink:href="#SimHei-72ec" x="200"/>
       <use xlink:href="#SimHei-7279" x="300"/>
       <use xlink:href="#SimHei-6027" x="400"/>
       <use xlink:href="#SimHei-548c" x="500"/>
       <use xlink:href="#SimHei-521b" x="600"/>
       <use xlink:href="#SimHei-65b0" x="700"/>
       <use xlink:href="#SimHei-6027" x="800"/>
       <use xlink:href="#SimHei-5f97" x="900"/>
       <use xlink:href="#SimHei-5206" x="1000"/>
      </g>
     </g>
    </g>
    <g id="xtick_6">
     <g id="line2d_6">
      <g>
       <use xlink:href="#m3c5bb4487f" x="1379.862365" y="877.835655" style="stroke: #000000; stroke-width: 0.8"/>
      </g>
     </g>
     <g id="text_6">
      <!-- 参考文献规范性得分 -->
      <g transform="translate(1215.198732 1092.431968) rotate(-50) scale(0.28 -0.28)">
       <defs>
        <path id="SimHei-53c2" d="M 3325 4850 
Q 3100 4725 2850 4500 
Q 2600 4275 2175 3925 
Q 2850 3950 3275 3950 
Q 3700 3950 4200 3975 
Q 3950 4200 3600 4450 
Q 3800 4625 3925 4775 
Q 4900 4100 5325 3675 
Q 5100 3475 4925 3300 
Q 4750 3475 4550 3625 
Q 3625 3600 3200 3575 
Q 3025 3250 2925 3125 
L 5075 3125 
Q 5575 3125 5950 3150 
L 5950 2700 
Q 5600 2725 5075 2725 
L 4325 2725 
Q 4675 2350 5187 2075 
Q 5700 1800 6150 1700 
Q 5850 1550 5675 1225 
Q 5100 1525 4612 1900 
Q 4125 2275 3800 2725 
L 2725 2725 
Q 2325 2300 1812 1962 
Q 1300 1625 650 1325 
Q 525 1525 250 1700 
Q 725 1825 1237 2100 
Q 1750 2375 2100 2725 
L 1475 2725 
Q 950 2725 375 2700 
L 375 3150 
Q 875 3125 1475 3125 
L 2400 3125 
L 2550 3350 
L 2650 3550 
Q 1925 3500 1775 3475 
Q 1625 3450 1500 3425 
Q 1375 3725 1300 3875 
Q 1600 3950 2050 4337 
Q 2500 4725 2825 5225 
Q 3025 5050 3325 4850 
z
M 5350 800 
Q 5025 650 4612 437 
Q 4200 225 3850 75 
Q 3500 -75 3062 -212 
Q 2625 -350 2150 -450 
Q 1675 -550 1225 -600 
Q 1150 -350 900 -150 
Q 1675 -125 2362 25 
Q 3050 175 3512 387 
Q 3975 600 4312 800 
Q 4650 1000 4900 1250 
Q 5100 1025 5350 800 
z
M 4550 1450 
Q 4350 1375 4037 1200 
Q 3725 1025 3350 862 
Q 2975 700 2512 550 
Q 2050 400 1575 325 
Q 1450 575 1250 775 
Q 1775 800 2175 900 
Q 2575 1000 3075 1212 
Q 3575 1425 4125 1850 
Q 4300 1675 4550 1450 
z
M 3900 2075 
Q 3575 1950 3350 1825 
Q 3125 1700 2687 1525 
Q 2250 1350 1750 1200 
Q 1625 1425 1450 1600 
Q 2025 1700 2587 1937 
Q 3150 2175 3500 2500 
Q 3700 2275 3900 2075 
z
" transform="scale(0.015625)"/>
        <path id="SimHei-8003" d="M 5175 1300 
Q 5125 1000 5012 425 
Q 4900 -150 4775 -300 
Q 4650 -450 4250 -525 
Q 3850 -600 3150 -650 
Q 3125 -325 2975 -100 
Q 4300 -150 4412 75 
Q 4525 300 4600 900 
L 3225 900 
Q 2700 900 2375 800 
Q 2325 1025 2200 1225 
Q 2375 1250 2500 1412 
Q 2625 1575 2775 1900 
L 2275 1900 
Q 2000 1750 1562 1550 
Q 1125 1350 550 1125 
Q 475 1325 250 1550 
Q 825 1700 1600 2037 
Q 2375 2375 3125 2950 
L 1425 2950 
Q 1100 2950 450 2925 
L 450 3375 
Q 1100 3350 1425 3350 
L 2725 3350 
L 2725 4150 
L 2025 4150 
Q 1800 4150 1350 4125 
L 1350 4550 
Q 1800 4525 2000 4525 
L 2725 4525 
Q 2725 5000 2700 5225 
L 3175 5225 
Q 3150 4875 3150 4525 
L 3525 4525 
Q 3700 4525 4325 4550 
L 4325 4125 
Q 3650 4150 3550 4150 
L 3150 4150 
L 3150 3350 
L 3625 3350 
Q 4100 3750 4487 4150 
Q 4875 4550 5075 4850 
Q 5275 4650 5550 4500 
Q 5375 4375 5012 4062 
Q 4650 3750 4225 3350 
L 5250 3350 
Q 5600 3350 6025 3375 
L 6025 2925 
Q 5600 2950 5250 2950 
L 3775 2950 
Q 3475 2725 2900 2300 
L 4675 2300 
Q 5075 2300 5300 2325 
L 5300 1875 
Q 5075 1900 4700 1900 
L 3250 1900 
Q 3125 1625 2950 1300 
L 5175 1300 
z
" transform="scale(0.015625)"/>
        <path id="SimHei-6587" d="M 1250 3450 
Q 725 3450 350 3400 
L 350 3925 
Q 925 3900 1400 3900 
L 4950 3900 
Q 5400 3900 6025 3925 
L 6025 3400 
Q 5400 3425 4625 3425 
Q 4500 2650 4175 1987 
Q 3850 1325 3475 900 
Q 3950 475 4725 212 
Q 5500 -50 6075 -100 
Q 5850 -275 5675 -625 
Q 5250 -525 4575 -275 
Q 3900 -25 3125 575 
Q 2100 -275 675 -675 
Q 625 -450 325 -175 
Q 750 -125 1487 137 
Q 2225 400 2750 875 
Q 1875 1775 1500 3450 
L 1250 3450 
z
M 2025 3425 
Q 2225 2075 3100 1200 
Q 3900 2175 4100 3425 
L 2025 3425 
z
M 2850 5250 
Q 3125 4825 3500 4175 
Q 3300 4125 3050 3925 
Q 2700 4575 2425 5000 
Q 2600 5050 2850 5250 
z
" transform="scale(0.015625)"/>
        <path id="SimHei-732e" d="M 1825 4300 
Q 1825 4775 1800 5175 
L 2300 5175 
Q 2275 4750 2275 4300 
L 2875 4300 
Q 3275 4300 3675 4325 
L 3675 3900 
Q 3275 3925 2900 3925 
L 2275 3925 
L 2275 3325 
L 3575 3325 
Q 3550 2950 3550 2575 
L 3550 200 
Q 3550 -225 3312 -325 
Q 3075 -425 2725 -475 
Q 2700 -200 2525 50 
Q 3000 0 3075 100 
Q 3150 200 3150 575 
L 3150 2975 
L 950 2975 
L 950 -475 
L 525 -475 
Q 550 -25 550 550 
L 550 2550 
Q 550 2950 525 3325 
L 1825 3325 
L 1825 3925 
L 1200 3925 
Q 750 3925 250 3900 
L 250 4325 
Q 750 4300 1200 4300 
L 1825 4300 
z
M 4475 3325 
Q 4475 4600 4400 5225 
Q 4725 5175 4925 5175 
Q 4900 4875 4900 3325 
L 5425 3325 
Q 5725 3325 6050 3350 
L 6050 2925 
Q 5725 2950 5425 2950 
L 5025 2950 
Q 5050 2175 5325 1237 
Q 5600 300 6200 -225 
Q 5900 -350 5725 -600 
Q 5225 25 5025 712 
Q 4825 1400 4775 2000 
Q 4600 875 4375 325 
Q 4150 -225 3925 -650 
Q 3725 -475 3425 -425 
Q 3750 -75 4037 787 
Q 4325 1650 4450 2950 
Q 4100 2950 3725 2925 
L 3725 3350 
Q 4175 3325 4475 3325 
z
M 2250 1225 
Q 2625 1225 2950 1250 
L 2950 825 
Q 2625 850 2250 850 
L 2250 -200 
L 1800 -200 
L 1800 850 
Q 1350 850 1100 825 
L 1100 1250 
Q 1375 1225 1800 1225 
L 1800 1650 
Q 1375 1650 1075 1625 
L 1075 2025 
Q 1325 2000 1775 2000 
L 2125 2000 
Q 2300 2600 2325 2825 
Q 2500 2750 2775 2675 
Q 2650 2550 2500 2000 
Q 2700 2000 2950 2025 
L 2950 1625 
Q 2600 1650 2250 1650 
L 2250 1225 
z
M 5525 4775 
Q 5625 4625 5925 3950 
Q 5625 3850 5500 3750 
Q 5275 4350 5125 4575 
Q 5325 4650 5525 4775 
z
M 1725 2800 
Q 1800 2525 1900 2150 
Q 1650 2100 1525 2025 
Q 1450 2425 1350 2675 
Q 1550 2775 1725 2800 
z
" transform="scale(0.015625)"/>
        <path id="SimHei-89c4" d="M 1875 1725 
Q 2475 1275 3000 825 
Q 2800 600 2625 375 
Q 2275 850 1750 1250 
Q 1575 850 1312 387 
Q 1050 -75 700 -525 
Q 500 -275 200 -150 
Q 525 75 787 450 
Q 1050 825 1237 1287 
Q 1425 1750 1450 2250 
L 1225 2250 
Q 850 2250 400 2225 
L 400 2675 
Q 850 2650 1250 2650 
L 1475 2650 
L 1475 3725 
Q 975 3725 650 3700 
L 650 4150 
Q 1000 4125 1475 4125 
Q 1475 4975 1450 5300 
Q 1725 5275 2050 5225 
Q 1950 5075 1937 4737 
Q 1925 4400 1925 4125 
Q 2475 4125 2700 4150 
L 2700 3700 
Q 2400 3725 1925 3725 
L 1925 2650 
Q 2600 2650 2825 2675 
L 2825 2225 
Q 2600 2250 1900 2250 
Q 1900 2050 1875 1725 
z
M 4675 3700 
Q 4600 3400 4550 2775 
Q 4500 2150 4425 1675 
L 4850 1675 
Q 4825 1425 4825 1000 
L 4825 300 
Q 4825 -25 4987 -75 
Q 5150 -125 5325 -112 
Q 5500 -100 5562 25 
Q 5625 150 5700 675 
Q 5900 500 6200 400 
Q 6000 -275 5862 -412 
Q 5725 -550 5400 -550 
L 4925 -550 
Q 4375 -550 4375 25 
L 4375 1550 
Q 4275 1175 4112 875 
Q 3950 575 3562 200 
Q 3175 -175 2375 -625 
Q 2225 -400 1950 -225 
Q 2725 100 3187 525 
Q 3650 950 3837 1375 
Q 4025 1800 4075 2462 
Q 4125 3125 4125 3800 
Q 4450 3725 4675 3700 
z
M 5700 4875 
Q 5675 4475 5675 3275 
Q 5675 2075 5700 1575 
L 5225 1575 
L 5225 4450 
L 3450 4450 
L 3450 1550 
L 3000 1550 
Q 3025 2125 3025 3275 
Q 3025 4425 3000 4875 
L 5700 4875 
z
" transform="scale(0.015625)"/>
        <path id="SimHei-8303" d="M 4200 875 
Q 4150 1150 3925 1400 
Q 4450 1400 4612 1450 
Q 4775 1500 4800 1725 
L 4850 2700 
L 3400 2700 
L 3400 325 
Q 3450 -25 3825 0 
L 5150 0 
Q 5325 0 5412 100 
Q 5500 200 5550 625 
Q 5825 450 6075 375 
Q 5925 -150 5775 -275 
Q 5625 -400 5300 -400 
L 3475 -400 
Q 2900 -400 2900 225 
L 2900 2000 
Q 2900 2625 2875 3100 
L 5375 3100 
Q 5350 2750 5325 2175 
Q 5300 1600 5250 1375 
Q 5200 1150 4962 1050 
Q 4725 950 4200 875 
z
M 1875 4400 
Q 1875 4700 1850 5125 
L 2400 5125 
Q 2375 4775 2375 4400 
L 3975 4400 
Q 3975 4825 3925 5125 
L 4500 5125 
Q 4475 4825 4475 4400 
L 5375 4400 
Q 5650 4400 6050 4425 
L 6050 3975 
Q 5650 4000 5375 4000 
L 4475 4000 
Q 4475 3675 4500 3350 
L 3975 3350 
L 3975 4000 
L 2375 4000 
L 2375 3325 
L 1850 3325 
Q 1875 3650 1875 4000 
L 1025 4000 
Q 550 4000 350 3975 
L 350 4425 
Q 775 4400 1025 4400 
L 1875 4400 
z
M 2250 900 
Q 2000 600 1562 100 
Q 1125 -400 925 -625 
Q 800 -450 525 -250 
Q 775 -75 1237 425 
Q 1700 925 1925 1250 
Q 2075 1075 2250 900 
z
M 725 2275 
Q 1325 1925 1800 1600 
Q 1550 1425 1425 1200 
Q 975 1575 375 1900 
Q 550 2075 725 2275 
z
M 1300 3450 
Q 1750 3150 2250 2700 
Q 2050 2575 1850 2350 
Q 1400 2800 925 3100 
Q 1125 3275 1300 3450 
z
" transform="scale(0.015625)"/>
       </defs>
       <use xlink:href="#SimHei-53c2"/>
       <use xlink:href="#SimHei-8003" x="100"/>
       <use xlink:href="#SimHei-6587" x="200"/>
       <use xlink:href="#SimHei-732e" x="300"/>
       <use xlink:href="#SimHei-89c4" x="400"/>
       <use xlink:href="#SimHei-8303" x="500"/>
       <use xlink:href="#SimHei-6027" x="600"/>
       <use xlink:href="#SimHei-5f97" x="700"/>
       <use xlink:href="#SimHei-5206" x="800"/>
      </g>
     </g>
    </g>
    <g id="xtick_7">
     <g id="line2d_7">
      <g>
       <use xlink:href="#m3c5bb4487f" x="1605.861047" y="877.835655" style="stroke: #000000; stroke-width: 0.8"/>
      </g>
     </g>
     <g id="text_7">
      <!-- 课程知识掌握度得分 -->
      <g transform="translate(1441.197414 1092.431968) rotate(-50) scale(0.28 -0.28)">
       <defs>
        <path id="SimHei-8bfe" d="M 5525 5125 
Q 5500 4675 5500 3825 
Q 5500 2975 5525 2625 
L 4175 2625 
L 4175 2125 
Q 5700 2125 6000 2150 
L 6000 1700 
Q 5675 1725 4350 1725 
Q 4750 1175 5225 825 
Q 5700 475 6200 300 
Q 6025 75 5925 -225 
Q 5275 50 4850 450 
Q 4425 850 4175 1250 
Q 4175 -150 4200 -700 
L 3700 -700 
Q 3725 -125 3725 1175 
Q 3475 800 3162 462 
Q 2850 125 2200 -300 
Q 2075 -75 1850 125 
Q 2525 475 2875 862 
Q 3225 1250 3475 1725 
Q 2300 1725 1975 1700 
L 1975 2150 
Q 2275 2125 3725 2125 
L 3725 2625 
L 2375 2625 
Q 2400 3175 2400 3900 
Q 2400 4650 2375 5125 
L 5525 5125 
z
M 2225 925 
Q 1950 600 1750 312 
Q 1550 25 1325 -325 
Q 1125 -175 875 -25 
Q 1100 200 1100 425 
L 1100 2825 
L 900 2825 
Q 575 2825 200 2800 
L 200 3275 
Q 550 3250 900 3250 
L 1575 3250 
Q 1550 2750 1550 2250 
L 1550 850 
Q 1700 1075 1875 1325 
Q 2025 1075 2225 925 
z
M 1200 5125 
Q 1625 4525 1825 4175 
Q 1600 4075 1350 3875 
Q 1025 4550 750 4825 
Q 1025 5000 1200 5125 
z
M 3725 3050 
L 3725 3700 
L 2875 3700 
L 2875 3050 
L 3725 3050 
z
M 5025 3050 
L 5025 3700 
L 4175 3700 
L 4175 3050 
L 5025 3050 
z
M 3725 4100 
L 3725 4725 
L 2875 4725 
L 2875 4100 
L 3725 4100 
z
M 5025 4100 
L 5025 4725 
L 4175 4725 
L 4175 4100 
L 5025 4100 
z
" transform="scale(0.015625)"/>
        <path id="SimHei-7a0b" d="M 5825 4975 
Q 5800 4425 5800 3975 
Q 5800 3550 5825 3125 
L 3025 3125 
Q 3050 3600 3050 4025 
Q 3050 4450 3025 4975 
L 5825 4975 
z
M 400 4825 
Q 825 4875 1362 4987 
Q 1900 5100 2275 5275 
Q 2450 4950 2625 4725 
Q 2450 4750 2262 4712 
Q 2075 4675 1850 4650 
L 1850 3425 
Q 2200 3425 2600 3450 
L 2600 2975 
Q 2200 3000 1850 3000 
L 1850 800 
Q 1850 250 1875 -675 
L 1375 -675 
Q 1400 250 1400 775 
L 1400 1925 
Q 1050 1225 625 600 
Q 450 850 225 1050 
Q 575 1400 850 1850 
Q 1125 2300 1350 3000 
Q 725 3000 425 2975 
L 425 3450 
Q 850 3425 1050 3425 
L 1400 3425 
L 1400 4550 
Q 1075 4475 575 4400 
Q 500 4625 400 4825 
z
M 5100 2500 
Q 5500 2500 5950 2525 
L 5950 2075 
Q 5500 2100 5100 2100 
L 4625 2100 
L 4625 1300 
L 4900 1300 
Q 5275 1300 5775 1325 
L 5775 850 
Q 5275 875 4975 875 
L 4625 875 
L 4625 0 
L 5225 0 
Q 5675 0 6175 25 
L 6175 -450 
Q 5775 -425 5225 -425 
L 3550 -425 
Q 3000 -425 2600 -475 
L 2600 25 
Q 3000 0 3550 0 
L 4150 0 
L 4150 875 
L 3800 875 
Q 3400 875 3050 825 
L 3050 1325 
Q 3400 1300 3800 1300 
L 4150 1300 
L 4150 2100 
L 3750 2100 
Q 3300 2100 2900 2075 
L 2900 2525 
Q 3300 2500 3750 2500 
L 5100 2500 
z
M 5275 3575 
L 5275 4550 
L 3500 4550 
L 3500 3575 
L 5275 3575 
z
M 2300 2400 
Q 2550 2025 2825 1525 
Q 2675 1425 2425 1225 
Q 2175 1775 1925 2125 
Q 2075 2250 2300 2400 
z
" transform="scale(0.015625)"/>
        <path id="SimHei-77e5" d="M 5925 4350 
Q 5900 3850 5900 3450 
L 5900 850 
Q 5900 375 5925 -125 
L 5400 -125 
L 5400 550 
L 4075 550 
L 4075 -225 
L 3550 -225 
Q 3575 250 3575 775 
L 3575 3450 
Q 3575 3850 3550 4350 
L 5925 4350 
z
M 500 -275 
Q 825 0 1087 387 
Q 1350 775 1525 1187 
Q 1700 1600 1750 2000 
Q 825 2000 425 1975 
L 425 2450 
Q 800 2425 1825 2425 
Q 1900 2950 1900 3700 
L 1325 3700 
Q 1200 3350 950 2875 
Q 675 2950 450 3000 
Q 625 3250 800 3662 
Q 975 4075 1087 4462 
Q 1200 4850 1250 5150 
Q 1500 5075 1825 5025 
Q 1700 4850 1625 4625 
Q 1550 4400 1450 4125 
Q 2875 4125 3225 4150 
L 3225 3700 
L 2375 3700 
Q 2375 3150 2325 2425 
Q 2925 2425 3375 2450 
L 3375 1975 
Q 2925 2000 2250 2000 
Q 2225 1725 2150 1475 
Q 2375 1300 2650 1087 
Q 2925 875 3350 375 
Q 3175 300 2950 25 
Q 2725 400 2487 637 
Q 2250 875 2000 1075 
Q 1850 675 1537 225 
Q 1225 -225 900 -575 
Q 775 -425 500 -275 
z
M 5400 950 
L 5400 3950 
L 4075 3950 
L 4075 950 
L 5400 950 
z
" transform="scale(0.015625)"/>
        <path id="SimHei-8bc6" d="M 5575 4875 
Q 5550 4375 5550 3325 
Q 5550 2300 5575 1850 
L 2600 1850 
Q 2625 2275 2625 3325 
Q 2625 4375 2600 4875 
L 5575 4875 
z
M 5025 2275 
L 5025 4400 
L 3150 4400 
L 3150 2275 
L 5025 2275 
z
M 1650 3350 
Q 1625 2900 1625 2300 
L 1625 850 
Q 1875 1100 2175 1475 
Q 2275 1225 2450 950 
Q 2075 600 1812 300 
Q 1550 0 1275 -350 
Q 1100 -75 850 100 
Q 1125 325 1125 600 
L 1125 2925 
Q 575 2925 250 2900 
L 250 3375 
Q 550 3350 925 3350 
L 1650 3350 
z
M 4825 1425 
Q 5775 350 6125 -150 
Q 5850 -350 5650 -550 
Q 5150 200 4425 1050 
Q 4625 1175 4825 1425 
z
M 3750 1075 
Q 3500 775 3150 300 
Q 2800 -175 2375 -650 
Q 2250 -500 1975 -300 
Q 2950 725 3250 1400 
Q 3500 1225 3750 1075 
z
M 1275 5275 
Q 1850 4625 2050 4300 
Q 1825 4150 1625 3925 
Q 1150 4650 875 4950 
Q 1075 5075 1275 5275 
z
" transform="scale(0.015625)"/>
        <path id="SimHei-638c" d="M 5525 1750 
Q 5075 1750 4600 1725 
Q 4125 1700 3525 1700 
L 3525 1275 
L 4075 1275 
Q 4700 1275 5275 1300 
L 5275 925 
Q 4700 950 4100 950 
L 3525 950 
L 3525 650 
L 4950 650 
Q 5500 650 6000 675 
L 6000 275 
Q 5525 300 4950 300 
L 3525 300 
L 3525 -200 
Q 3475 -450 3300 -537 
Q 3125 -625 2575 -650 
Q 2500 -375 2375 -150 
Q 2950 -175 3012 -125 
Q 3075 -75 3075 300 
L 1425 300 
Q 875 300 400 275 
L 400 675 
Q 875 650 1450 650 
L 3075 650 
L 3075 950 
L 2050 950 
Q 1500 950 1125 925 
L 1125 1300 
Q 1475 1275 2050 1275 
L 3075 1275 
L 3075 1650 
Q 2500 1625 1000 1575 
Q 950 1775 825 1975 
Q 1950 1950 3175 2012 
Q 4400 2075 5225 2200 
L 5525 1750 
z
M 5100 4850 
Q 4950 4650 4600 4150 
L 5900 4150 
Q 5900 3925 5887 3662 
Q 5875 3400 5900 3075 
L 5400 3075 
L 5400 3775 
L 1050 3775 
L 1050 3075 
L 550 3075 
Q 575 3300 575 3600 
Q 575 3925 550 4150 
L 2950 4150 
L 2950 4675 
Q 2950 4925 2925 5175 
L 3450 5175 
Q 3425 4925 3425 4675 
L 3425 4150 
L 4150 4150 
Q 4475 4675 4575 5075 
L 5100 4850 
z
M 4775 3450 
Q 4725 3200 4725 2925 
Q 4725 2675 4750 2375 
L 1600 2375 
Q 1625 2675 1625 2950 
Q 1625 3225 1600 3450 
L 4775 3450 
z
M 4275 2725 
L 4275 3100 
L 2050 3100 
L 2050 2725 
L 4275 2725 
z
M 1675 5125 
Q 1825 5000 2250 4450 
Q 2125 4375 1850 4175 
Q 1675 4500 1325 4850 
Q 1375 4925 1675 5125 
z
" transform="scale(0.015625)"/>
        <path id="SimHei-63e1" d="M 5875 5000 
Q 5850 4675 5850 4325 
Q 5850 3975 5875 3675 
L 2900 3675 
Q 2900 2600 2787 1862 
Q 2675 1125 2512 587 
Q 2350 50 2075 -500 
Q 1900 -275 1600 -175 
Q 2000 325 2225 1225 
Q 2450 2125 2450 3225 
Q 2450 4325 2425 5000 
L 5875 5000 
z
M 1000 4525 
Q 1000 4925 975 5225 
L 1475 5225 
Q 1450 5025 1450 4625 
L 1450 3925 
Q 1875 3925 2050 3950 
L 2050 3525 
Q 1825 3550 1450 3550 
L 1450 2600 
Q 1825 2750 2000 2850 
Q 2050 2600 2075 2400 
Q 1750 2250 1450 2125 
L 1450 0 
Q 1425 -300 1187 -375 
Q 950 -450 625 -525 
Q 575 -200 425 25 
Q 1000 25 1000 225 
L 1000 1950 
Q 800 1850 400 1625 
Q 375 1775 200 2125 
Q 800 2325 1000 2425 
L 1000 3550 
Q 600 3550 275 3525 
L 275 3950 
Q 550 3925 1000 3925 
L 1000 4525 
z
M 4700 1525 
Q 4675 1250 4675 950 
Q 5450 950 5775 975 
L 5775 525 
Q 5450 550 4675 550 
L 4675 -100 
L 5300 -100 
Q 5750 -100 6100 -75 
L 6100 -500 
Q 5750 -475 5325 -475 
L 3600 -475 
Q 3175 -475 2775 -500 
L 2775 -75 
Q 3075 -100 3600 -100 
L 4250 -100 
L 4250 550 
Q 3450 550 3075 525 
L 3075 975 
Q 3450 950 4250 950 
Q 4250 1250 4225 1525 
L 4700 1525 
z
M 3350 1550 
Q 3300 1800 3200 2025 
Q 3425 2150 3575 2300 
Q 3725 2450 3875 2850 
Q 3450 2850 3075 2825 
L 3075 3300 
Q 3450 3225 3825 3225 
L 5075 3225 
Q 5350 3225 5750 3300 
L 5750 2825 
Q 5375 2850 5050 2850 
L 4350 2850 
Q 4250 2450 3875 2050 
Q 4375 2075 5125 2100 
Q 5025 2225 4875 2325 
Q 5100 2525 5200 2650 
Q 5675 2125 5975 1775 
Q 5850 1675 5625 1400 
Q 5525 1550 5350 1775 
Q 4875 1750 4237 1712 
Q 3600 1675 3350 1550 
z
M 5425 4025 
L 5425 4625 
L 2900 4625 
L 2900 4025 
L 5425 4025 
z
" transform="scale(0.015625)"/>
       </defs>
       <use xlink:href="#SimHei-8bfe"/>
       <use xlink:href="#SimHei-7a0b" x="100"/>
       <use xlink:href="#SimHei-77e5" x="200"/>
       <use xlink:href="#SimHei-8bc6" x="300"/>
       <use xlink:href="#SimHei-638c" x="400"/>
       <use xlink:href="#SimHei-63e1" x="500"/>
       <use xlink:href="#SimHei-5ea6" x="600"/>
       <use xlink:href="#SimHei-5f97" x="700"/>
       <use xlink:href="#SimHei-5206" x="800"/>
      </g>
     </g>
    </g>
   </g>
   <g id="matplotlib.axis_2">
    <g id="ytick_1">
     <g id="line2d_8">
      <path d="M 70.2 877.835655 
L 1785.53 877.835655 
" clip-path="url(#p114efcf137)" style="fill: none; stroke-dasharray: 2.96,1.28; stroke-dashoffset: 0; stroke: #b0b0b0; stroke-opacity: 0.7; stroke-width: 0.8"/>
     </g>
     <g id="line2d_9">
      <defs>
       <path id="mf8e5524a77" d="M 0 0 
L -3.5 0 
" style="stroke: #000000; stroke-width: 0.8"/>
      </defs>
      <g>
       <use xlink:href="#mf8e5524a77" x="70.2" y="877.835655" style="stroke: #000000; stroke-width: 0.8"/>
      </g>
     </g>
     <g id="text_8">
      <!-- -0.2 -->
      <g transform="translate(7.2 887.460655) scale(0.28 -0.28)">
       <defs>
        <path id="SimHei-2d" d="M 2975 2125 
L 125 2125 
L 125 2525 
L 2975 2525 
L 2975 2125 
z
" transform="scale(0.015625)"/>
        <path id="SimHei-30" d="M 225 2537 
Q 250 3200 412 3587 
Q 575 3975 875 4225 
Q 1175 4475 1612 4475 
Q 2050 4475 2375 4112 
Q 2700 3750 2800 3200 
Q 2900 2650 2862 1937 
Q 2825 1225 2612 775 
Q 2400 325 1975 150 
Q 1550 -25 1125 187 
Q 700 400 525 750 
Q 350 1100 275 1487 
Q 200 1875 225 2537 
z
M 750 2687 
Q 675 2000 800 1462 
Q 925 925 1212 700 
Q 1500 475 1800 612 
Q 2100 750 2237 1162 
Q 2375 1575 2375 2062 
Q 2375 2550 2337 2950 
Q 2300 3350 2112 3675 
Q 1925 4000 1612 4012 
Q 1300 4025 1062 3700 
Q 825 3375 750 2687 
z
" transform="scale(0.015625)"/>
        <path id="SimHei-2e" d="M 1075 125 
L 500 125 
L 500 675 
L 1075 675 
L 1075 125 
z
" transform="scale(0.015625)"/>
        <path id="SimHei-32" d="M 300 250 
Q 325 625 650 925 
Q 975 1225 1475 1862 
Q 1975 2500 2125 2850 
Q 2275 3200 2237 3450 
Q 2200 3700 2000 3862 
Q 1800 4025 1537 4000 
Q 1275 3975 1037 3800 
Q 800 3625 675 3275 
L 200 3350 
Q 400 3925 712 4187 
Q 1025 4450 1450 4475 
Q 1700 4500 1900 4462 
Q 2100 4425 2312 4287 
Q 2525 4150 2662 3875 
Q 2800 3600 2762 3212 
Q 2725 2825 2375 2287 
Q 2025 1750 1025 600 
L 2825 600 
L 2825 150 
L 300 150 
L 300 250 
z
" transform="scale(0.015625)"/>
       </defs>
       <use xlink:href="#SimHei-2d"/>
       <use xlink:href="#SimHei-30" x="50"/>
       <use xlink:href="#SimHei-2e" x="100"/>
       <use xlink:href="#SimHei-32" x="150"/>
      </g>
     </g>
    </g>
    <g id="ytick_2">
     <g id="line2d_10">
      <path d="M 70.2 719.538263 
L 1785.53 719.538263 
" clip-path="url(#p114efcf137)" style="fill: none; stroke-dasharray: 2.96,1.28; stroke-dashoffset: 0; stroke: #b0b0b0; stroke-opacity: 0.7; stroke-width: 0.8"/>
     </g>
     <g id="line2d_11">
      <g>
       <use xlink:href="#mf8e5524a77" x="70.2" y="719.538263" style="stroke: #000000; stroke-width: 0.8"/>
      </g>
     </g>
     <g id="text_9">
      <!-- 0.0 -->
      <g transform="translate(21.2 729.163263) scale(0.28 -0.28)">
       <use xlink:href="#SimHei-30"/>
       <use xlink:href="#SimHei-2e" x="50"/>
       <use xlink:href="#SimHei-30" x="100"/>
      </g>
     </g>
    </g>
    <g id="ytick_3">
     <g id="line2d_12">
      <path d="M 70.2 561.240872 
L 1785.53 561.240872 
" clip-path="url(#p114efcf137)" style="fill: none; stroke-dasharray: 2.96,1.28; stroke-dashoffset: 0; stroke: #b0b0b0; stroke-opacity: 0.7; stroke-width: 0.8"/>
     </g>
     <g id="line2d_13">
      <g>
       <use xlink:href="#mf8e5524a77" x="70.2" y="561.240872" style="stroke: #000000; stroke-width: 0.8"/>
      </g>
     </g>
     <g id="text_10">
      <!-- 0.2 -->
      <g transform="translate(21.2 570.865872) scale(0.28 -0.28)">
       <use xlink:href="#SimHei-30"/>
       <use xlink:href="#SimHei-2e" x="50"/>
       <use xlink:href="#SimHei-32" x="100"/>
      </g>
     </g>
    </g>
    <g id="ytick_4">
     <g id="line2d_14">
      <path d="M 70.2 402.94348 
L 1785.53 402.94348 
" clip-path="url(#p114efcf137)" style="fill: none; stroke-dasharray: 2.96,1.28; stroke-dashoffset: 0; stroke: #b0b0b0; stroke-opacity: 0.7; stroke-width: 0.8"/>
     </g>
     <g id="line2d_15">
      <g>
       <use xlink:href="#mf8e5524a77" x="70.2" y="402.94348" style="stroke: #000000; stroke-width: 0.8"/>
      </g>
     </g>
     <g id="text_11">
      <!-- 0.4 -->
      <g transform="translate(21.2 412.56848) scale(0.28 -0.28)">
       <defs>
        <path id="SimHei-34" d="M 2000 1100 
L 75 1100 
L 75 1525 
L 2100 4450 
L 2475 4450 
L 2475 1525 
L 3075 1525 
L 3075 1100 
L 2475 1100 
L 2475 150 
L 2000 150 
L 2000 1100 
z
M 2000 1525 
L 2000 3500 
L 600 1525 
L 2000 1525 
z
" transform="scale(0.015625)"/>
       </defs>
       <use xlink:href="#SimHei-30"/>
       <use xlink:href="#SimHei-2e" x="50"/>
       <use xlink:href="#SimHei-34" x="100"/>
      </g>
     </g>
    </g>
    <g id="ytick_5">
     <g id="line2d_16">
      <path d="M 70.2 244.646088 
L 1785.53 244.646088 
" clip-path="url(#p114efcf137)" style="fill: none; stroke-dasharray: 2.96,1.28; stroke-dashoffset: 0; stroke: #b0b0b0; stroke-opacity: 0.7; stroke-width: 0.8"/>
     </g>
     <g id="line2d_17">
      <g>
       <use xlink:href="#mf8e5524a77" x="70.2" y="244.646088" style="stroke: #000000; stroke-width: 0.8"/>
      </g>
     </g>
     <g id="text_12">
      <!-- 0.6 -->
      <g transform="translate(21.2 254.271088) scale(0.28 -0.28)">
       <defs>
        <path id="SimHei-36" d="M 250 1612 
Q 275 1975 387 2225 
Q 500 2475 725 2850 
L 1750 4450 
L 2325 4450 
L 1275 2800 
Q 1950 2975 2350 2750 
Q 2750 2525 2887 2237 
Q 3025 1950 3037 1612 
Q 3050 1275 2937 950 
Q 2825 625 2537 362 
Q 2250 100 1737 75 
Q 1225 50 862 262 
Q 500 475 362 862 
Q 225 1250 250 1612 
z
M 1025 787 
Q 1250 550 1625 525 
Q 2000 500 2250 775 
Q 2500 1050 2500 1575 
Q 2500 2100 2187 2300 
Q 1875 2500 1487 2450 
Q 1100 2400 925 2075 
Q 750 1750 775 1387 
Q 800 1025 1025 787 
z
" transform="scale(0.015625)"/>
       </defs>
       <use xlink:href="#SimHei-30"/>
       <use xlink:href="#SimHei-2e" x="50"/>
       <use xlink:href="#SimHei-36" x="100"/>
      </g>
     </g>
    </g>
    <g id="ytick_6">
     <g id="line2d_18">
      <path d="M 70.2 86.348696 
L 1785.53 86.348696 
" clip-path="url(#p114efcf137)" style="fill: none; stroke-dasharray: 2.96,1.28; stroke-dashoffset: 0; stroke: #b0b0b0; stroke-opacity: 0.7; stroke-width: 0.8"/>
     </g>
     <g id="line2d_19">
      <g>
       <use xlink:href="#mf8e5524a77" x="70.2" y="86.348696" style="stroke: #000000; stroke-width: 0.8"/>
      </g>
     </g>
     <g id="text_13">
      <!-- 0.8 -->
      <g transform="translate(21.2 95.973696) scale(0.28 -0.28)">
       <defs>
        <path id="SimHei-38" d="M 175 1375 
Q 175 1675 325 1962 
Q 475 2250 825 2425 
Q 525 2600 425 2812 
Q 325 3025 312 3300 
Q 300 3575 387 3775 
Q 475 3975 650 4150 
Q 825 4325 1037 4387 
Q 1250 4450 1500 4450 
Q 1750 4450 1950 4400 
Q 2150 4350 2375 4187 
Q 2600 4025 2700 3725 
Q 2800 3425 2687 3025 
Q 2575 2625 2100 2400 
Q 2525 2275 2700 2012 
Q 2875 1750 2875 1375 
Q 2875 1000 2762 775 
Q 2650 550 2512 400 
Q 2375 250 2137 162 
Q 1900 75 1537 75 
Q 1175 75 912 162 
Q 650 250 475 425 
Q 300 600 237 837 
Q 175 1075 175 1375 
z
M 687 1400 
Q 675 1100 787 875 
Q 900 650 1200 587 
Q 1500 525 1825 600 
Q 2150 675 2275 950 
Q 2400 1225 2362 1500 
Q 2325 1775 2050 1962 
Q 1775 2150 1450 2125 
Q 1125 2100 912 1900 
Q 700 1700 687 1400 
z
M 775 3350 
Q 775 3100 950 2875 
Q 1125 2650 1500 2650 
Q 1875 2650 2062 2875 
Q 2250 3100 2237 3412 
Q 2225 3725 2012 3875 
Q 1800 4025 1437 4000 
Q 1075 3975 925 3787 
Q 775 3600 775 3350 
z
" transform="scale(0.015625)"/>
       </defs>
       <use xlink:href="#SimHei-30"/>
       <use xlink:href="#SimHei-2e" x="50"/>
       <use xlink:href="#SimHei-38" x="100"/>
      </g>
     </g>
    </g>
   </g>
   <g id="patch_38">
    <path d="M 70.2 877.835655 
L 70.2 7.2 
" style="fill: none; stroke: #000000; stroke-width: 0.8; stroke-linejoin: miter; stroke-linecap: square"/>
   </g>
   <g id="patch_39">
    <path d="M 1785.53 877.835655 
L 1785.53 7.2 
" style="fill: none; stroke: #000000; stroke-width: 0.8; stroke-linejoin: miter; stroke-linecap: square"/>
   </g>
   <g id="patch_40">
    <path d="M 70.2 877.835655 
L 1785.53 877.835655 
" style="fill: none; stroke: #000000; stroke-width: 0.8; stroke-linejoin: miter; stroke-linecap: square"/>
   </g>
   <g id="patch_41">
    <path d="M 70.2 7.2 
L 1785.53 7.2 
" style="fill: none; stroke: #000000; stroke-width: 0.8; stroke-linejoin: miter; stroke-linecap: square"/>
   </g>
   <g id="text_14">
    <!-- 0.21 -->
    <g transform="translate(150.509427 524.956932) scale(0.18 -0.18)">
     <defs>
      <path id="SimHei-31" d="M 1400 3600 
Q 1075 3275 575 2975 
L 575 3450 
Q 1200 3875 1600 4450 
L 1900 4450 
L 1900 150 
L 1400 150 
L 1400 3600 
z
" transform="scale(0.015625)"/>
     </defs>
     <use xlink:href="#SimHei-30"/>
     <use xlink:href="#SimHei-2e" x="50"/>
     <use xlink:href="#SimHei-32" x="100"/>
     <use xlink:href="#SimHei-31" x="150"/>
    </g>
   </g>
   <g id="text_15">
    <!-- 0.29 -->
    <g transform="translate(376.508109 461.637976) scale(0.18 -0.18)">
     <defs>
      <path id="SimHei-39" d="M 800 75 
Q 1350 1000 1700 1750 
Q 1075 1650 662 1912 
Q 250 2175 162 2625 
Q 75 3075 175 3437 
Q 275 3800 487 4037 
Q 700 4275 1000 4375 
Q 1300 4475 1537 4475 
Q 1775 4475 2025 4375 
Q 2275 4275 2475 4075 
Q 2675 3875 2750 3662 
Q 2825 3450 2825 3112 
Q 2825 2775 2575 2250 
Q 2325 1725 1350 75 
L 800 75 
z
M 662 2875 
Q 700 2550 937 2337 
Q 1175 2125 1450 2150 
Q 1725 2175 1887 2300 
Q 2050 2425 2200 2725 
Q 2300 3100 2250 3362 
Q 2200 3625 1987 3800 
Q 1775 3975 1525 3975 
Q 1375 4000 1137 3900 
Q 900 3800 762 3500 
Q 625 3200 662 2875 
z
" transform="scale(0.015625)"/>
     </defs>
     <use xlink:href="#SimHei-30"/>
     <use xlink:href="#SimHei-2e" x="50"/>
     <use xlink:href="#SimHei-32" x="100"/>
     <use xlink:href="#SimHei-39" x="150"/>
    </g>
   </g>
   <g id="text_16">
    <!-- 0.07 -->
    <g transform="translate(602.506792 635.765107) scale(0.18 -0.18)">
     <defs>
      <path id="SimHei-37" d="M 850 150 
Q 1300 2050 2425 3925 
L 275 3925 
L 275 4375 
L 2950 4375 
L 2950 3950 
Q 1775 2050 1400 150 
L 850 150 
z
" transform="scale(0.015625)"/>
     </defs>
     <use xlink:href="#SimHei-30"/>
     <use xlink:href="#SimHei-2e" x="50"/>
     <use xlink:href="#SimHei-30" x="100"/>
     <use xlink:href="#SimHei-37" x="150"/>
    </g>
   </g>
   <g id="text_17">
    <!-- -0.04 -->
    <g transform="translate(824.005474 789.691811) scale(0.18 -0.18)">
     <use xlink:href="#SimHei-2d"/>
     <use xlink:href="#SimHei-30" x="50"/>
     <use xlink:href="#SimHei-2e" x="100"/>
     <use xlink:href="#SimHei-30" x="150"/>
     <use xlink:href="#SimHei-34" x="200"/>
    </g>
   </g>
   <g id="text_18">
    <!-- 0.49 -->
    <g transform="translate(1054.504157 303.340584) scale(0.18 -0.18)">
     <use xlink:href="#SimHei-30"/>
     <use xlink:href="#SimHei-2e" x="50"/>
     <use xlink:href="#SimHei-34" x="100"/>
     <use xlink:href="#SimHei-39" x="150"/>
    </g>
   </g>
   <g id="text_19">
    <!-- 0.04 -->
    <g transform="translate(1280.502839 659.509715) scale(0.18 -0.18)">
     <use xlink:href="#SimHei-30"/>
     <use xlink:href="#SimHei-2e" x="50"/>
     <use xlink:href="#SimHei-30" x="100"/>
     <use xlink:href="#SimHei-34" x="150"/>
    </g>
   </g>
   <g id="text_20">
    <!-- -0.00 -->
    <g transform="translate(1502.001522 691.169194) scale(0.18 -0.18)">
     <use xlink:href="#SimHei-2d"/>
     <use xlink:href="#SimHei-30" x="50"/>
     <use xlink:href="#SimHei-2e" x="100"/>
     <use xlink:href="#SimHei-30" x="150"/>
     <use xlink:href="#SimHei-30" x="200"/>
    </g>
   </g>
   <g id="text_21">
    <!-- 0.41 -->
    <g transform="translate(191.18919 366.65954) scale(0.18 -0.18)">
     <use xlink:href="#SimHei-30"/>
     <use xlink:href="#SimHei-2e" x="50"/>
     <use xlink:href="#SimHei-34" x="100"/>
     <use xlink:href="#SimHei-31" x="150"/>
    </g>
   </g>
   <g id="text_22">
    <!-- 0.05 -->
    <g transform="translate(417.187872 651.594846) scale(0.18 -0.18)">
     <defs>
      <path id="SimHei-35" d="M 550 1325 
Q 725 650 1150 575 
Q 1575 500 1837 662 
Q 2100 825 2212 1087 
Q 2325 1350 2312 1675 
Q 2300 2000 2137 2225 
Q 1975 2450 1725 2525 
Q 1475 2600 1162 2525 
Q 850 2450 650 2175 
L 225 2225 
Q 275 2375 700 4375 
L 2675 4375 
L 2675 3925 
L 1075 3925 
Q 950 3250 825 2850 
Q 1200 3025 1525 3012 
Q 1850 3000 2150 2862 
Q 2450 2725 2587 2487 
Q 2725 2250 2787 2012 
Q 2850 1775 2837 1500 
Q 2825 1225 2725 937 
Q 2625 650 2425 462 
Q 2225 275 1937 162 
Q 1650 50 1275 75 
Q 900 100 562 350 
Q 225 600 100 1200 
L 550 1325 
z
" transform="scale(0.015625)"/>
     </defs>
     <use xlink:href="#SimHei-30"/>
     <use xlink:href="#SimHei-2e" x="50"/>
     <use xlink:href="#SimHei-30" x="100"/>
     <use xlink:href="#SimHei-35" x="150"/>
    </g>
   </g>
   <g id="text_23">
    <!-- 0.07 -->
    <g transform="translate(643.186555 635.765107) scale(0.18 -0.18)">
     <use xlink:href="#SimHei-30"/>
     <use xlink:href="#SimHei-2e" x="50"/>
     <use xlink:href="#SimHei-30" x="100"/>
     <use xlink:href="#SimHei-37" x="150"/>
    </g>
   </g>
   <g id="text_24">
    <!-- 0.24 -->
    <g transform="translate(869.185237 501.212324) scale(0.18 -0.18)">
     <use xlink:href="#SimHei-30"/>
     <use xlink:href="#SimHei-2e" x="50"/>
     <use xlink:href="#SimHei-32" x="100"/>
     <use xlink:href="#SimHei-34" x="150"/>
    </g>
   </g>
   <g id="text_25">
    <!-- 0.70 -->
    <g transform="translate(1095.18392 137.128322) scale(0.18 -0.18)">
     <use xlink:href="#SimHei-30"/>
     <use xlink:href="#SimHei-2e" x="50"/>
     <use xlink:href="#SimHei-37" x="100"/>
     <use xlink:href="#SimHei-30" x="150"/>
    </g>
   </g>
   <g id="text_26">
    <!-- 0.02 -->
    <g transform="translate(1321.182602 675.339455) scale(0.18 -0.18)">
     <use xlink:href="#SimHei-30"/>
     <use xlink:href="#SimHei-2e" x="50"/>
     <use xlink:href="#SimHei-30" x="100"/>
     <use xlink:href="#SimHei-32" x="150"/>
    </g>
   </g>
   <g id="text_27">
    <!-- 0.07 -->
    <g transform="translate(1547.181285 635.765107) scale(0.18 -0.18)">
     <use xlink:href="#SimHei-30"/>
     <use xlink:href="#SimHei-2e" x="50"/>
     <use xlink:href="#SimHei-30" x="100"/>
     <use xlink:href="#SimHei-37" x="150"/>
    </g>
   </g>
   <g id="text_28">
    <!-- 0.40 -->
    <g transform="translate(231.868953 374.57441) scale(0.18 -0.18)">
     <use xlink:href="#SimHei-30"/>
     <use xlink:href="#SimHei-2e" x="50"/>
     <use xlink:href="#SimHei-34" x="100"/>
     <use xlink:href="#SimHei-30" x="150"/>
    </g>
   </g>
   <g id="text_29">
    <!-- 0.23 -->
    <g transform="translate(457.867635 509.127193) scale(0.18 -0.18)">
     <defs>
      <path id="SimHei-33" d="M 250 1225 
L 700 1300 
Q 800 975 1025 762 
Q 1250 550 1587 562 
Q 1925 575 2125 837 
Q 2325 1100 2300 1437 
Q 2275 1775 2037 1962 
Q 1800 2150 1275 2225 
L 1275 2550 
Q 1800 2600 2037 2825 
Q 2275 3050 2250 3412 
Q 2225 3775 1925 3937 
Q 1625 4100 1287 3975 
Q 950 3850 750 3275 
L 300 3350 
Q 450 3800 712 4100 
Q 975 4400 1425 4450 
Q 1875 4500 2212 4337 
Q 2550 4175 2687 3837 
Q 2825 3500 2725 3100 
Q 2625 2700 2150 2400 
Q 2500 2250 2687 1950 
Q 2875 1650 2812 1162 
Q 2750 675 2375 375 
Q 2000 75 1525 87 
Q 1050 100 700 387 
Q 350 675 250 1225 
z
" transform="scale(0.015625)"/>
     </defs>
     <use xlink:href="#SimHei-30"/>
     <use xlink:href="#SimHei-2e" x="50"/>
     <use xlink:href="#SimHei-32" x="100"/>
     <use xlink:href="#SimHei-33" x="150"/>
    </g>
   </g>
   <g id="text_30">
    <!-- 0.24 -->
    <g transform="translate(683.866318 501.212324) scale(0.18 -0.18)">
     <use xlink:href="#SimHei-30"/>
     <use xlink:href="#SimHei-2e" x="50"/>
     <use xlink:href="#SimHei-32" x="100"/>
     <use xlink:href="#SimHei-34" x="150"/>
    </g>
   </g>
   <g id="text_31">
    <!-- 0.21 -->
    <g transform="translate(909.865 524.956932) scale(0.18 -0.18)">
     <use xlink:href="#SimHei-30"/>
     <use xlink:href="#SimHei-2e" x="50"/>
     <use xlink:href="#SimHei-32" x="100"/>
     <use xlink:href="#SimHei-31" x="150"/>
    </g>
   </g>
   <g id="text_32">
    <!-- 0.35 -->
    <g transform="translate(1135.863682 414.148758) scale(0.18 -0.18)">
     <use xlink:href="#SimHei-30"/>
     <use xlink:href="#SimHei-2e" x="50"/>
     <use xlink:href="#SimHei-33" x="100"/>
     <use xlink:href="#SimHei-35" x="150"/>
    </g>
   </g>
   <g id="text_33">
    <!-- 0.08 -->
    <g transform="translate(1361.862365 627.850237) scale(0.18 -0.18)">
     <use xlink:href="#SimHei-30"/>
     <use xlink:href="#SimHei-2e" x="50"/>
     <use xlink:href="#SimHei-30" x="100"/>
     <use xlink:href="#SimHei-38" x="150"/>
    </g>
   </g>
   <g id="text_34">
    <!-- 0.36 -->
    <g transform="translate(1587.861047 406.233888) scale(0.18 -0.18)">
     <use xlink:href="#SimHei-30"/>
     <use xlink:href="#SimHei-2e" x="50"/>
     <use xlink:href="#SimHei-33" x="100"/>
     <use xlink:href="#SimHei-36" x="150"/>
    </g>
   </g>
   <g id="text_35">
    <!-- 0.29 -->
    <g transform="translate(272.548715 461.637976) scale(0.18 -0.18)">
     <use xlink:href="#SimHei-30"/>
     <use xlink:href="#SimHei-2e" x="50"/>
     <use xlink:href="#SimHei-32" x="100"/>
     <use xlink:href="#SimHei-39" x="150"/>
    </g>
   </g>
   <g id="text_36">
    <!-- 0.16 -->
    <g transform="translate(498.547398 564.53128) scale(0.18 -0.18)">
     <use xlink:href="#SimHei-30"/>
     <use xlink:href="#SimHei-2e" x="50"/>
     <use xlink:href="#SimHei-31" x="100"/>
     <use xlink:href="#SimHei-36" x="150"/>
    </g>
   </g>
   <g id="text_37">
    <!-- 0.10 -->
    <g transform="translate(724.54608 612.020498) scale(0.18 -0.18)">
     <use xlink:href="#SimHei-30"/>
     <use xlink:href="#SimHei-2e" x="50"/>
     <use xlink:href="#SimHei-31" x="100"/>
     <use xlink:href="#SimHei-30" x="150"/>
    </g>
   </g>
   <g id="text_38">
    <!-- 0.24 -->
    <g transform="translate(950.544763 501.212324) scale(0.18 -0.18)">
     <use xlink:href="#SimHei-30"/>
     <use xlink:href="#SimHei-2e" x="50"/>
     <use xlink:href="#SimHei-32" x="100"/>
     <use xlink:href="#SimHei-34" x="150"/>
    </g>
   </g>
   <g id="text_39">
    <!-- 0.54 -->
    <g transform="translate(1176.543445 263.766236) scale(0.18 -0.18)">
     <use xlink:href="#SimHei-30"/>
     <use xlink:href="#SimHei-2e" x="50"/>
     <use xlink:href="#SimHei-35" x="100"/>
     <use xlink:href="#SimHei-34" x="150"/>
    </g>
   </g>
   <g id="text_40">
    <!-- 0.35 -->
    <g transform="translate(1402.542128 414.148758) scale(0.18 -0.18)">
     <use xlink:href="#SimHei-30"/>
     <use xlink:href="#SimHei-2e" x="50"/>
     <use xlink:href="#SimHei-33" x="100"/>
     <use xlink:href="#SimHei-35" x="150"/>
    </g>
   </g>
   <g id="text_41">
    <!-- 0.06 -->
    <g transform="translate(1628.54081 643.679976) scale(0.18 -0.18)">
     <use xlink:href="#SimHei-30"/>
     <use xlink:href="#SimHei-2e" x="50"/>
     <use xlink:href="#SimHei-30" x="100"/>
     <use xlink:href="#SimHei-36" x="150"/>
    </g>
   </g>
   <g id="text_42">
    <!-- 0.56 -->
    <g transform="translate(313.228478 247.936497) scale(0.18 -0.18)">
     <use xlink:href="#SimHei-30"/>
     <use xlink:href="#SimHei-2e" x="50"/>
     <use xlink:href="#SimHei-35" x="100"/>
     <use xlink:href="#SimHei-36" x="150"/>
    </g>
   </g>
   <g id="text_43">
    <!-- -0.06 -->
    <g transform="translate(534.727161 805.521551) scale(0.18 -0.18)">
     <use xlink:href="#SimHei-2d"/>
     <use xlink:href="#SimHei-30" x="50"/>
     <use xlink:href="#SimHei-2e" x="100"/>
     <use xlink:href="#SimHei-30" x="150"/>
     <use xlink:href="#SimHei-36" x="200"/>
    </g>
   </g>
   <g id="text_44">
    <!-- 0.01 -->
    <g transform="translate(765.225843 683.254324) scale(0.18 -0.18)">
     <use xlink:href="#SimHei-30"/>
     <use xlink:href="#SimHei-2e" x="50"/>
     <use xlink:href="#SimHei-30" x="100"/>
     <use xlink:href="#SimHei-31" x="150"/>
    </g>
   </g>
   <g id="text_45">
    <!-- 0.45 -->
    <g transform="translate(991.224526 335.000062) scale(0.18 -0.18)">
     <use xlink:href="#SimHei-30"/>
     <use xlink:href="#SimHei-2e" x="50"/>
     <use xlink:href="#SimHei-34" x="100"/>
     <use xlink:href="#SimHei-35" x="150"/>
    </g>
   </g>
   <g id="text_46">
    <!-- 0.53 -->
    <g transform="translate(1217.223208 271.681105) scale(0.18 -0.18)">
     <use xlink:href="#SimHei-30"/>
     <use xlink:href="#SimHei-2e" x="50"/>
     <use xlink:href="#SimHei-35" x="100"/>
     <use xlink:href="#SimHei-33" x="150"/>
    </g>
   </g>
   <g id="text_47">
    <!-- 0.07 -->
    <g transform="translate(1443.221891 635.765107) scale(0.18 -0.18)">
     <use xlink:href="#SimHei-30"/>
     <use xlink:href="#SimHei-2e" x="50"/>
     <use xlink:href="#SimHei-30" x="100"/>
     <use xlink:href="#SimHei-37" x="150"/>
    </g>
   </g>
   <g id="text_48">
    <!-- 0.31 -->
    <g transform="translate(1669.220573 445.808236) scale(0.18 -0.18)">
     <use xlink:href="#SimHei-30"/>
     <use xlink:href="#SimHei-2e" x="50"/>
     <use xlink:href="#SimHei-33" x="100"/>
     <use xlink:href="#SimHei-31" x="150"/>
    </g>
   </g>
   <g id="legend_1">
    <g id="patch_42">
     <path d="M 1398.53 238.410938 
L 1764.53 238.410938 
Q 1770.53 238.410938 1770.53 232.410938 
L 1770.53 28.2 
Q 1770.53 22.2 1764.53 22.2 
L 1398.53 22.2 
Q 1392.53 22.2 1392.53 28.2 
L 1392.53 232.410938 
Q 1392.53 238.410938 1398.53 238.410938 
z
" style="fill: #ffffff; opacity: 0.8; stroke: #cccccc; stroke-linejoin: miter"/>
    </g>
    <g id="patch_43">
     <path d="M 1404.53 57.989063 
L 1464.53 57.989063 
L 1464.53 36.989063 
L 1404.53 36.989063 
z
" style="fill: #1f77b4"/>
    </g>
    <g id="text_49">
     <!-- 通义千问-Plus -->
     <g transform="translate(1488.53 57.989063) scale(0.3 -0.3)">
      <defs>
       <path id="SimHei-901a" d="M 5675 5050 
Q 5325 4650 4937 4300 
Q 4550 3950 4250 3650 
L 5700 3650 
Q 5675 3100 5675 2575 
L 5675 850 
Q 5700 525 5500 425 
Q 5300 325 4900 250 
Q 4850 475 4650 775 
Q 5025 800 5150 850 
Q 5275 900 5250 1325 
L 4125 1325 
L 4125 300 
L 3675 300 
L 3675 1325 
L 2575 1325 
L 2575 300 
L 2125 300 
Q 2150 1125 2150 1950 
Q 2150 2775 2125 3650 
L 3600 3650 
Q 3475 3850 3050 4200 
Q 3225 4350 3375 4525 
Q 3825 4175 4000 4000 
Q 4400 4425 4625 4650 
L 3025 4650 
Q 2525 4650 2150 4625 
L 2150 5075 
Q 2525 5050 2975 5050 
L 5675 5050 
z
M 1425 3000 
Q 1400 2500 1400 2100 
L 1400 600 
Q 2025 -25 3700 -25 
Q 5375 -25 6150 125 
Q 6000 -175 5975 -500 
Q 3975 -525 3137 -450 
Q 2300 -375 1775 -112 
Q 1250 150 1075 -37 
Q 900 -225 650 -650 
Q 425 -400 200 -225 
Q 600 125 975 425 
L 975 2575 
Q 775 2575 350 2550 
L 350 3025 
Q 750 3000 1425 3000 
z
M 5250 1725 
L 5250 2325 
L 4125 2325 
L 4125 1725 
L 5250 1725 
z
M 3675 1725 
L 3675 2325 
L 2575 2325 
L 2575 1725 
L 3675 1725 
z
M 5250 2725 
L 5250 3275 
L 4125 3275 
L 4125 2725 
L 5250 2725 
z
M 3675 2725 
L 3675 3275 
L 2575 3275 
L 2575 2725 
L 3675 2725 
z
M 1025 5025 
Q 1450 4425 1700 4075 
Q 1425 3925 1250 3725 
Q 1075 4100 600 4725 
Q 800 4875 1025 5025 
z
" transform="scale(0.015625)"/>
       <path id="SimHei-4e49" d="M 3550 1175 
Q 4450 375 6025 -25 
Q 5775 -300 5675 -625 
Q 4275 -175 3125 800 
Q 2250 0 675 -625 
Q 525 -325 350 -100 
Q 1750 250 2775 1150 
Q 1875 2175 1150 4350 
Q 1325 4350 1625 4550 
Q 2275 2500 3175 1550 
Q 4100 2625 4675 4675 
Q 5050 4500 5250 4450 
Q 5075 4025 4637 2987 
Q 4200 1950 3550 1175 
z
M 2975 5175 
Q 3425 4350 3675 3650 
Q 3375 3550 3175 3450 
Q 2925 4175 2525 4950 
Q 2750 5025 2975 5175 
z
" transform="scale(0.015625)"/>
       <path id="SimHei-5343" d="M 750 4525 
Q 2150 4600 3187 4750 
Q 4225 4900 4875 5225 
Q 5025 4875 5250 4625 
Q 4950 4625 4425 4537 
Q 3900 4450 3425 4375 
L 3425 2575 
L 5100 2575 
Q 5525 2575 6000 2600 
L 6000 2125 
Q 5500 2150 5100 2150 
L 3425 2150 
L 3425 425 
Q 3425 -75 3450 -625 
L 2900 -625 
Q 2925 -75 2925 400 
L 2925 2150 
L 1275 2150 
Q 825 2150 375 2125 
L 375 2600 
Q 875 2575 1275 2575 
L 2925 2575 
L 2925 4275 
Q 2575 4225 2087 4175 
Q 1600 4125 1025 4050 
Q 950 4350 750 4525 
z
" transform="scale(0.015625)"/>
       <path id="SimHei-95ee" d="M 4375 3225 
Q 4350 2675 4350 2100 
Q 4350 1525 4375 1050 
L 1900 1050 
Q 1925 1575 1925 2075 
Q 1925 2575 1900 3225 
L 4375 3225 
z
M 5800 4825 
Q 5775 4350 5775 3850 
L 5775 100 
Q 5775 -375 5500 -462 
Q 5225 -550 4725 -625 
Q 4700 -275 4500 -25 
Q 5025 -25 5125 0 
Q 5225 25 5250 225 
L 5250 4400 
L 3800 4400 
Q 3175 4400 2675 4375 
L 2675 4850 
Q 3175 4825 3775 4825 
L 5800 4825 
z
M 1175 3875 
Q 1150 3450 1150 3175 
L 1150 -600 
L 600 -600 
Q 625 -100 625 325 
L 625 3050 
Q 625 3500 600 3875 
L 1175 3875 
z
M 3850 1475 
L 3850 2800 
L 2400 2800 
L 2400 1475 
L 3850 1475 
z
M 1400 5200 
Q 1700 4800 2125 4325 
Q 1950 4200 1675 4000 
Q 1325 4550 975 4875 
Q 1225 5075 1400 5200 
z
" transform="scale(0.015625)"/>
       <path id="SimHei-50" d="M 2950 3100 
Q 2950 2500 2600 2150 
Q 2250 1800 1625 1800 
L 900 1800 
L 900 125 
L 325 125 
L 325 4400 
L 1625 4400 
Q 2250 4400 2600 4050 
Q 2950 3700 2950 3100 
z
M 2375 3100 
Q 2375 3575 2150 3750 
Q 1925 3925 1475 3925 
L 900 3925 
L 900 2275 
L 1475 2275 
Q 1925 2275 2150 2450 
Q 2375 2625 2375 3100 
z
" transform="scale(0.015625)"/>
       <path id="SimHei-6c" d="M 1825 125 
L 1325 125 
L 1325 4400 
L 1825 4400 
L 1825 125 
z
" transform="scale(0.015625)"/>
       <path id="SimHei-75" d="M 2800 125 
L 2300 125 
L 2300 650 
Q 2100 375 1862 225 
Q 1625 75 1250 75 
Q 800 75 575 325 
Q 350 575 350 950 
L 350 2925 
L 850 2925 
L 850 1125 
Q 850 825 1000 650 
Q 1150 475 1400 475 
Q 1725 475 2012 812 
Q 2300 1150 2300 1650 
L 2300 2925 
L 2800 2925 
L 2800 125 
z
" transform="scale(0.015625)"/>
       <path id="SimHei-73" d="M 2750 900 
Q 2750 500 2437 287 
Q 2125 75 1650 75 
Q 1050 75 725 312 
Q 400 550 400 1000 
L 900 1000 
Q 900 700 1112 600 
Q 1325 500 1625 500 
Q 1925 500 2075 612 
Q 2225 725 2225 900 
Q 2225 1025 2100 1150 
Q 1975 1275 1475 1350 
Q 900 1425 687 1637 
Q 475 1850 475 2200 
Q 475 2500 762 2737 
Q 1050 2975 1600 2975 
Q 2100 2975 2387 2750 
Q 2675 2525 2675 2150 
L 2175 2150 
Q 2175 2375 2012 2462 
Q 1850 2550 1600 2550 
Q 1275 2550 1137 2437 
Q 1000 2325 1000 2175 
Q 1000 2000 1125 1900 
Q 1250 1800 1650 1750 
Q 2300 1650 2525 1437 
Q 2750 1225 2750 900 
z
" transform="scale(0.015625)"/>
      </defs>
      <use xlink:href="#SimHei-901a"/>
      <use xlink:href="#SimHei-4e49" x="100"/>
      <use xlink:href="#SimHei-5343" x="200"/>
      <use xlink:href="#SimHei-95ee" x="300"/>
      <use xlink:href="#SimHei-2d" x="400"/>
      <use xlink:href="#SimHei-50" x="450"/>
      <use xlink:href="#SimHei-6c" x="500"/>
      <use xlink:href="#SimHei-75" x="550"/>
      <use xlink:href="#SimHei-73" x="600"/>
     </g>
    </g>
    <g id="patch_44">
     <path d="M 1404.53 100.528125 
L 1464.53 100.528125 
L 1464.53 79.528125 
L 1404.53 79.528125 
z
" style="fill: #ff7f0e"/>
    </g>
    <g id="text_50">
     <!-- 通义千问2.5-14B-1M -->
     <g transform="translate(1488.53 100.528125) scale(0.3 -0.3)">
      <defs>
       <path id="SimHei-42" d="M 2950 1400 
Q 2950 675 2550 400 
Q 2150 125 1525 125 
L 275 125 
L 275 4400 
L 1575 4400 
Q 2200 4400 2512 4075 
Q 2825 3750 2825 3300 
Q 2825 2850 2612 2637 
Q 2400 2425 2175 2350 
Q 2475 2275 2712 2037 
Q 2950 1800 2950 1400 
z
M 2250 3300 
Q 2250 3625 2062 3775 
Q 1875 3925 1600 3925 
L 850 3925 
L 850 2600 
L 1575 2600 
Q 1850 2600 2050 2762 
Q 2250 2925 2250 3300 
z
M 2350 1400 
Q 2350 1800 2087 1962 
Q 1825 2125 1500 2125 
L 850 2125 
L 850 600 
L 1425 600 
Q 1875 600 2112 775 
Q 2350 950 2350 1400 
z
" transform="scale(0.015625)"/>
       <path id="SimHei-4d" d="M 2925 125 
L 2425 125 
L 2425 3175 
L 2375 3175 
L 1775 125 
L 1375 125 
L 775 3175 
L 725 3175 
L 725 125 
L 225 125 
L 225 4400 
L 1000 4400 
L 1550 1575 
L 1600 1575 
L 2150 4400 
L 2925 4400 
L 2925 125 
z
" transform="scale(0.015625)"/>
      </defs>
      <use xlink:href="#SimHei-901a"/>
      <use xlink:href="#SimHei-4e49" x="100"/>
      <use xlink:href="#SimHei-5343" x="200"/>
      <use xlink:href="#SimHei-95ee" x="300"/>
      <use xlink:href="#SimHei-32" x="400"/>
      <use xlink:href="#SimHei-2e" x="450"/>
      <use xlink:href="#SimHei-35" x="500"/>
      <use xlink:href="#SimHei-2d" x="550"/>
      <use xlink:href="#SimHei-31" x="600"/>
      <use xlink:href="#SimHei-34" x="650"/>
      <use xlink:href="#SimHei-42" x="700"/>
      <use xlink:href="#SimHei-2d" x="750"/>
      <use xlink:href="#SimHei-31" x="800"/>
      <use xlink:href="#SimHei-4d" x="850"/>
     </g>
    </g>
    <g id="patch_45">
     <path d="M 1404.53 143.067188 
L 1464.53 143.067188 
L 1464.53 122.067188 
L 1404.53 122.067188 
z
" style="fill: #2ca02c"/>
    </g>
    <g id="text_51">
     <!-- 通义千问-Turbo -->
     <g transform="translate(1488.53 143.067188) scale(0.3 -0.3)">
      <defs>
       <path id="SimHei-54" d="M 2850 3925 
L 1850 3925 
L 1850 125 
L 1275 125 
L 1275 3925 
L 275 3925 
L 275 4400 
L 2850 4400 
L 2850 3925 
z
" transform="scale(0.015625)"/>
       <path id="SimHei-72" d="M 2500 2425 
Q 2025 2500 1700 2287 
Q 1375 2075 1150 1550 
L 1150 125 
L 650 125 
L 650 2925 
L 1150 2925 
L 1150 2200 
Q 1375 2600 1712 2787 
Q 2050 2975 2500 2975 
L 2500 2425 
z
" transform="scale(0.015625)"/>
       <path id="SimHei-62" d="M 2825 1525 
Q 2825 800 2475 437 
Q 2125 75 1625 75 
Q 1350 75 1150 175 
Q 950 275 800 500 
L 800 125 
L 300 125 
L 300 4400 
L 800 4400 
L 800 2550 
Q 950 2775 1150 2887 
Q 1350 3000 1625 3000 
Q 2125 3000 2475 2625 
Q 2825 2250 2825 1525 
z
M 2275 1525 
Q 2275 2000 2087 2275 
Q 1900 2550 1525 2550 
Q 1225 2550 1012 2275 
Q 800 2000 800 1525 
Q 800 1050 1012 787 
Q 1225 525 1525 525 
Q 1900 525 2087 787 
Q 2275 1050 2275 1525 
z
" transform="scale(0.015625)"/>
       <path id="SimHei-6f" d="M 2925 1525 
Q 2925 875 2525 475 
Q 2125 75 1575 75 
Q 1025 75 625 475 
Q 225 875 225 1525 
Q 225 2175 625 2575 
Q 1025 2975 1575 2975 
Q 2125 2975 2525 2575 
Q 2925 2175 2925 1525 
z
M 2375 1525 
Q 2375 2025 2125 2275 
Q 1875 2525 1575 2525 
Q 1275 2525 1025 2275 
Q 775 2025 775 1525 
Q 775 1025 1025 775 
Q 1275 525 1575 525 
Q 1875 525 2125 775 
Q 2375 1025 2375 1525 
z
" transform="scale(0.015625)"/>
      </defs>
      <use xlink:href="#SimHei-901a"/>
      <use xlink:href="#SimHei-4e49" x="100"/>
      <use xlink:href="#SimHei-5343" x="200"/>
      <use xlink:href="#SimHei-95ee" x="300"/>
      <use xlink:href="#SimHei-2d" x="400"/>
      <use xlink:href="#SimHei-54" x="450"/>
      <use xlink:href="#SimHei-75" x="500"/>
      <use xlink:href="#SimHei-72" x="550"/>
      <use xlink:href="#SimHei-62" x="600"/>
      <use xlink:href="#SimHei-6f" x="650"/>
     </g>
    </g>
    <g id="patch_46">
     <path d="M 1404.53 182.910938 
L 1464.53 182.910938 
L 1464.53 161.910938 
L 1404.53 161.910938 
z
" style="fill: #d62728"/>
    </g>
    <g id="text_52">
     <!-- DeepSeek-V3 -->
     <g transform="translate(1488.53 182.910938) scale(0.3 -0.3)">
      <defs>
       <path id="SimHei-44" d="M 2925 2250 
Q 2925 1100 2437 612 
Q 1950 125 1125 125 
L 275 125 
L 275 4400 
L 1125 4400 
Q 2050 4400 2487 3900 
Q 2925 3400 2925 2250 
z
M 2325 2250 
Q 2325 3175 2025 3550 
Q 1725 3925 1125 3925 
L 850 3925 
L 850 600 
L 1125 600 
Q 1725 600 2025 962 
Q 2325 1325 2325 2250 
z
" transform="scale(0.015625)"/>
       <path id="SimHei-65" d="M 2850 1075 
Q 2800 625 2450 350 
Q 2100 75 1625 75 
Q 1025 75 637 462 
Q 250 850 250 1525 
Q 250 2200 637 2587 
Q 1025 2975 1625 2975 
Q 2150 2975 2487 2637 
Q 2825 2300 2825 1525 
L 800 1525 
Q 800 975 1037 750 
Q 1275 525 1625 525 
Q 1900 525 2075 662 
Q 2250 800 2300 1075 
L 2850 1075 
z
M 2250 1925 
Q 2200 2275 2025 2412 
Q 1850 2550 1575 2550 
Q 1325 2550 1125 2412 
Q 925 2275 825 1925 
L 2250 1925 
z
" transform="scale(0.015625)"/>
       <path id="SimHei-70" d="M 2825 1525 
Q 2825 800 2475 425 
Q 2125 50 1625 50 
Q 1350 50 1150 162 
Q 950 275 800 500 
L 800 -800 
L 300 -800 
L 300 2925 
L 800 2925 
L 800 2550 
Q 950 2775 1150 2875 
Q 1350 2975 1625 2975 
Q 2125 2975 2475 2612 
Q 2825 2250 2825 1525 
z
M 2275 1525 
Q 2275 2000 2087 2262 
Q 1900 2525 1525 2525 
Q 1225 2525 1012 2262 
Q 800 2000 800 1525 
Q 800 1050 1012 775 
Q 1225 500 1525 500 
Q 1900 500 2087 775 
Q 2275 1050 2275 1525 
z
" transform="scale(0.015625)"/>
       <path id="SimHei-53" d="M 2900 1325 
Q 2900 750 2537 412 
Q 2175 75 1550 75 
Q 925 75 575 425 
Q 225 775 225 1300 
L 225 1475 
L 800 1475 
L 800 1325 
Q 800 950 1025 750 
Q 1250 550 1550 550 
Q 1950 550 2137 762 
Q 2325 975 2325 1275 
Q 2325 1525 2100 1737 
Q 1875 1950 1450 2125 
Q 850 2350 587 2625 
Q 325 2900 325 3275 
Q 325 3800 687 4125 
Q 1050 4450 1550 4450 
Q 2200 4450 2487 4062 
Q 2775 3675 2775 3225 
L 2200 3225 
Q 2225 3500 2050 3725 
Q 1875 3950 1550 3950 
Q 1250 3950 1075 3787 
Q 900 3625 900 3350 
Q 900 3125 1037 2962 
Q 1175 2800 1750 2575 
Q 2300 2350 2600 2037 
Q 2900 1725 2900 1325 
z
" transform="scale(0.015625)"/>
       <path id="SimHei-6b" d="M 2925 125 
L 2350 125 
L 1450 1650 
L 875 1100 
L 875 125 
L 375 125 
L 375 4400 
L 875 4400 
L 875 1675 
L 2125 2925 
L 2750 2925 
L 1775 1975 
L 2925 125 
z
" transform="scale(0.015625)"/>
       <path id="SimHei-56" d="M 3050 4400 
L 1800 75 
L 1300 75 
L 50 4400 
L 650 4400 
L 1525 1125 
L 1575 1125 
L 2450 4400 
L 3050 4400 
z
" transform="scale(0.015625)"/>
      </defs>
      <use xlink:href="#SimHei-44"/>
      <use xlink:href="#SimHei-65" x="50"/>
      <use xlink:href="#SimHei-65" x="100"/>
      <use xlink:href="#SimHei-70" x="150"/>
      <use xlink:href="#SimHei-53" x="200"/>
      <use xlink:href="#SimHei-65" x="250"/>
      <use xlink:href="#SimHei-65" x="300"/>
      <use xlink:href="#SimHei-6b" x="350"/>
      <use xlink:href="#SimHei-2d" x="400"/>
      <use xlink:href="#SimHei-56" x="450"/>
      <use xlink:href="#SimHei-33" x="500"/>
     </g>
    </g>
    <g id="patch_47">
     <path d="M 1404.53 222.660938 
L 1464.53 222.660938 
L 1464.53 201.660938 
L 1404.53 201.660938 
z
" style="fill: #9467bd"/>
    </g>
    <g id="text_53">
     <!-- DeepSeek-R1 -->
     <g transform="translate(1488.53 222.660938) scale(0.3 -0.3)">
      <defs>
       <path id="SimHei-52" d="M 3000 125 
L 2400 125 
L 1500 1975 
L 850 1975 
L 850 125 
L 275 125 
L 275 4400 
L 1525 4400 
Q 2125 4400 2500 4112 
Q 2875 3825 2875 3175 
Q 2875 2675 2625 2400 
Q 2375 2125 2050 2050 
L 3000 125 
z
M 2300 3175 
Q 2300 3525 2087 3725 
Q 1875 3925 1400 3925 
L 850 3925 
L 850 2450 
L 1550 2450 
Q 1850 2450 2075 2612 
Q 2300 2775 2300 3175 
z
" transform="scale(0.015625)"/>
      </defs>
      <use xlink:href="#SimHei-44"/>
      <use xlink:href="#SimHei-65" x="50"/>
      <use xlink:href="#SimHei-65" x="100"/>
      <use xlink:href="#SimHei-70" x="150"/>
      <use xlink:href="#SimHei-53" x="200"/>
      <use xlink:href="#SimHei-65" x="250"/>
      <use xlink:href="#SimHei-65" x="300"/>
      <use xlink:href="#SimHei-6b" x="350"/>
      <use xlink:href="#SimHei-2d" x="400"/>
      <use xlink:href="#SimHei-52" x="450"/>
      <use xlink:href="#SimHei-31" x="500"/>
     </g>
    </g>
   </g>
  </g>
 </g>
 <defs>
  <clipPath id="p114efcf137">
   <rect x="70.2" y="7.2" width="1715.33" height="870.635655"/>
  </clipPath>
 </defs>
</svg>
